<?xml version="1.0" encoding="UTF-8"?>
<!DOCTYPE svg PUBLIC "-//W3C//DTD SVG 1.1//EN" "http://www.w3.org/Graphics/SVG/1.1/DTD/svg11.dtd">
<svg xmlns="http://www.w3.org/2000/svg" version="1.1" width="430px" height="450px" style="shape-rendering:geometricPrecision; text-rendering:geometricPrecision; image-rendering:optimizeQuality; fill-rule:evenodd; clip-rule:evenodd" xmlns:xlink="http://www.w3.org/1999/xlink">
<g><path style="opacity:0.878" fill="#595455" d="M 368.5,125.5 C 368.167,125.5 367.833,125.5 367.5,125.5C 365.605,110.814 360.938,97.1469 353.5,84.5C 348.601,75.3693 342.267,67.3693 334.5,60.5C 315.212,43.1761 292.545,33.8428 266.5,32.5C 196.665,31.1682 126.665,31.1682 56.5,32.5C 56.6236,33.1067 56.9569,33.44 57.5,33.5C 66.8604,42.1937 75.8604,51.1937 84.5,60.5C 86.8333,63.5 89.5,66.1667 92.5,68.5C 95.2394,71.2327 97.5727,74.2327 99.5,77.5C 98.8333,77.5 98.5,77.8333 98.5,78.5C 83.5337,63.3659 68.7004,48.0326 54,32.5C 53.3828,31.5509 53.5494,30.7175 54.5,30C 125.167,29.3333 195.833,29.3333 266.5,30C 315.743,34.5964 348.576,60.0964 365,106.5C 366.876,112.714 368.043,119.048 368.5,125.5 Z"/></g>
<g><path style="opacity:1" fill="#a6a4a5" d="M 266.5,32.5 C 196.665,32.1675 126.998,32.5008 57.5,33.5C 56.9569,33.44 56.6236,33.1067 56.5,32.5C 126.665,31.1682 196.665,31.1682 266.5,32.5 Z"/></g>
<g><path style="opacity:1" fill="#f5f5f5" d="M 57.5,33.5 C 126.998,32.5008 196.665,32.1675 266.5,32.5C 292.545,33.8428 315.212,43.1761 334.5,60.5C 332.458,63.3655 331.292,63.0321 331,59.5C 330.612,60.428 329.945,61.0946 329,61.5C 327.04,60.7082 325.54,59.3749 324.5,57.5C 323.158,59.0049 321.492,59.6715 319.5,59.5C 319.5,58.1667 319.5,56.8333 319.5,55.5C 316.843,55.162 314.51,55.8287 312.5,57.5C 310.054,55.0606 307.554,55.0606 305,57.5C 303.48,56.4933 301.813,55.8266 300,55.5C 293.194,56.3611 286.361,56.6944 279.5,56.5C 279.131,51.1538 276.798,49.8205 272.5,52.5C 269.579,51.5934 266.579,51.2601 263.5,51.5C 263.657,50.1266 263.49,48.7932 263,47.5C 261.135,52.7937 259.635,52.7937 258.5,47.5C 257.127,47.3433 255.793,47.51 254.5,48C 255.554,49.3876 255.72,50.8876 255,52.5C 252.927,50.2261 250.593,48.2261 248,46.5C 246.041,47.7481 244.541,49.4148 243.5,51.5C 242.333,49.8333 241.167,48.1667 240,46.5C 235.96,48.4588 231.793,48.7922 227.5,47.5C 223.197,48.5461 219.03,49.8794 215,51.5C 213.647,50.3147 212.48,48.9814 211.5,47.5C 210.52,48.9814 209.353,50.3147 208,51.5C 205.525,49.2484 202.859,49.2484 200,51.5C 199.667,50.1667 199.333,48.8333 199,47.5C 196.667,52.8333 194.333,52.8333 192,47.5C 191.781,48.938 191.281,50.2713 190.5,51.5C 188.336,50.5857 186.336,49.419 184.5,48C 181.833,47.8333 179.167,47.6667 176.5,47.5C 172.99,47.9389 169.657,47.9389 166.5,47.5C 165.5,48.8333 164.5,50.1667 163.5,51.5C 160.27,46.5816 156.437,46.2482 152,50.5C 151.517,49.552 151.351,48.552 151.5,47.5C 146.9,46.9235 142.734,47.9235 139,50.5C 138.127,50.2645 137.293,49.9312 136.5,49.5C 128.368,51.4274 120.035,52.094 111.5,51.5C 111.762,50.0222 111.429,48.6888 110.5,47.5C 109.5,48.8333 108.5,50.1667 107.5,51.5C 106.585,50.6721 105.919,49.6721 105.5,48.5C 102.232,47.513 98.8984,47.1796 95.5,47.5C 95.5,48.5 95.5,49.5 95.5,50.5C 92.8333,51.1667 90.1667,51.8333 87.5,52.5C 87.6495,51.448 87.4828,50.448 87,49.5C 85.4667,49.9437 83.9667,50.277 82.5,50.5C 83.6888,51.4287 85.0222,51.762 86.5,51.5C 86.2388,55.0442 87.9055,56.8775 91.5,57C 88.2095,57.7194 85.8761,58.8861 84.5,60.5C 75.8604,51.1937 66.8604,42.1937 57.5,33.5 Z"/></g>
<g><path style="opacity:1" fill="#f0f0f0" d="M 334.5,60.5 C 342.267,67.3693 348.601,75.3693 353.5,84.5C 353.714,86.1439 353.38,87.6439 352.5,89C 354.1,90.9705 354.266,92.8038 353,94.5C 351.738,91.5261 350.238,88.6928 348.5,86C 349.956,85.5774 350.456,84.7441 350,83.5C 349,84.1667 348,84.8333 347,85.5C 346.632,84.09 345.799,83.09 344.5,82.5C 344.06,83.698 343.727,84.8647 343.5,86C 347.98,86.2926 348.313,87.126 344.5,88.5C 340.741,87.734 337.074,87.4006 333.5,87.5C 331.726,87.8868 330.059,88.5535 328.5,89.5C 326.78,88.0451 324.78,87.2117 322.5,87C 324.167,85.8333 325.833,84.6667 327.5,83.5C 327,83.1667 326.5,82.8333 326,82.5C 322.518,83.3337 319.018,83.5004 315.5,83C 314.692,83.3076 314.025,83.8076 313.5,84.5C 314.5,85.3333 315.5,86.1667 316.5,87C 314.444,87.3108 312.444,87.8108 310.5,88.5C 308.556,87.8108 306.556,87.3108 304.5,87C 307.079,85.3883 307.079,83.8883 304.5,82.5C 303.77,84.3413 303.103,86.1746 302.5,88C 302.833,88.3333 303.167,88.6667 303.5,89C 301.464,91.0199 299.631,92.5199 298,93.5C 297.807,91.5057 296.973,89.6723 295.5,88C 296.308,87.6924 296.975,87.1924 297.5,86.5C 295.588,84.3428 293.921,82.0094 292.5,79.5C 292.12,81.0207 291.954,82.6874 292,84.5C 290.332,80.7628 288.999,80.7628 288,84.5C 286.584,81.8052 284.584,81.1386 282,82.5C 281.667,81.8333 281.333,81.1667 281,80.5C 278.703,80.5391 276.37,80.8724 274,81.5C 272.56,79.9544 270.727,79.121 268.5,79C 280.796,77.91 281.129,76.7433 269.5,75.5C 267.896,75.9391 266.396,76.6057 265,77.5C 263.234,76.7665 261.401,76.4332 259.5,76.5C 259.5,77.5 259.5,78.5 259.5,79.5C 253.824,79.6661 248.157,79.4994 242.5,79C 245.043,78.8603 247.377,78.1937 249.5,77C 241.47,76.2289 233.47,76.3955 225.5,77.5C 222.17,76.0493 218.67,75.3826 215,75.5C 211.079,76.1033 207.245,76.1033 203.5,75.5C 195.644,77.8246 187.811,77.8246 180,75.5C 178.687,76.5728 177.187,77.2395 175.5,77.5C 170.498,76.3482 165.498,75.3482 160.5,74.5C 159.262,76.7344 157.596,77.0678 155.5,75.5C 152.239,75.8791 149.239,76.8791 146.5,78.5C 146.006,75.6701 144.339,74.3368 141.5,74.5C 130.334,74.7868 119.334,76.1201 108.5,78.5C 105.788,78.5465 103.622,77.5465 102,75.5C 101.667,75.8333 101.333,76.1667 101,76.5C 100.727,74.6711 99.8932,73.1711 98.5,72C 99.3081,71.6924 99.9747,71.1924 100.5,70.5C 98.8513,69.3523 97.3513,68.019 96,66.5C 95.1841,67.8228 94.0174,68.4894 92.5,68.5C 89.5,66.1667 86.8333,63.5 84.5,60.5C 85.8761,58.8861 88.2095,57.7194 91.5,57C 87.9055,56.8775 86.2388,55.0442 86.5,51.5C 85.0222,51.762 83.6888,51.4287 82.5,50.5C 83.9667,50.277 85.4667,49.9437 87,49.5C 87.4828,50.448 87.6495,51.448 87.5,52.5C 90.1667,51.8333 92.8333,51.1667 95.5,50.5C 95.5,49.5 95.5,48.5 95.5,47.5C 98.8984,47.1796 102.232,47.513 105.5,48.5C 105.919,49.6721 106.585,50.6721 107.5,51.5C 108.5,50.1667 109.5,48.8333 110.5,47.5C 111.429,48.6888 111.762,50.0222 111.5,51.5C 120.035,52.094 128.368,51.4274 136.5,49.5C 137.293,49.9312 138.127,50.2645 139,50.5C 142.734,47.9235 146.9,46.9235 151.5,47.5C 151.351,48.552 151.517,49.552 152,50.5C 156.437,46.2482 160.27,46.5816 163.5,51.5C 164.5,50.1667 165.5,48.8333 166.5,47.5C 169.657,47.9389 172.99,47.9389 176.5,47.5C 179.167,47.6667 181.833,47.8333 184.5,48C 186.336,49.419 188.336,50.5857 190.5,51.5C 191.281,50.2713 191.781,48.938 192,47.5C 194.333,52.8333 196.667,52.8333 199,47.5C 199.333,48.8333 199.667,50.1667 200,51.5C 202.859,49.2484 205.525,49.2484 208,51.5C 209.353,50.3147 210.52,48.9814 211.5,47.5C 212.48,48.9814 213.647,50.3147 215,51.5C 219.03,49.8794 223.197,48.5461 227.5,47.5C 231.793,48.7922 235.96,48.4588 240,46.5C 241.167,48.1667 242.333,49.8333 243.5,51.5C 244.541,49.4148 246.041,47.7481 248,46.5C 250.593,48.2261 252.927,50.2261 255,52.5C 255.72,50.8876 255.554,49.3876 254.5,48C 255.793,47.51 257.127,47.3433 258.5,47.5C 259.635,52.7937 261.135,52.7937 263,47.5C 263.49,48.7932 263.657,50.1266 263.5,51.5C 266.579,51.2601 269.579,51.5934 272.5,52.5C 276.798,49.8205 279.131,51.1538 279.5,56.5C 286.361,56.6944 293.194,56.3611 300,55.5C 301.813,55.8266 303.48,56.4933 305,57.5C 307.554,55.0606 310.054,55.0606 312.5,57.5C 314.51,55.8287 316.843,55.162 319.5,55.5C 319.5,56.8333 319.5,58.1667 319.5,59.5C 321.492,59.6715 323.158,59.0049 324.5,57.5C 325.54,59.3749 327.04,60.7082 329,61.5C 329.945,61.0946 330.612,60.428 331,59.5C 331.292,63.0321 332.458,63.3655 334.5,60.5 Z"/></g>
<g><path style="opacity:1" fill="#b2afb0" d="M 102.5,79.5 C 156.627,80.1584 210.627,80.825 264.5,81.5C 210.832,81.6667 157.166,81.5 103.5,81C 102.944,80.6174 102.611,80.1174 102.5,79.5 Z"/></g>
<g><path style="opacity:0.371" fill="#484647" d="M 99.5,77.5 C 100.5,78.1667 101.5,78.8333 102.5,79.5C 102.611,80.1174 102.944,80.6174 103.5,81C 157.166,81.5 210.832,81.6667 264.5,81.5C 287.304,83.7186 303.637,95.0519 313.5,115.5C 315.122,119.322 316.122,123.322 316.5,127.5C 319.241,143.794 316.241,158.794 307.5,172.5C 306.833,172.5 306.5,172.167 306.5,171.5C 319.215,148.293 318.382,125.627 304,103.5C 293.967,91.5665 281.133,85.0665 265.5,84C 211.5,83.6667 157.5,83.3333 103.5,83C 101.34,82.0041 99.6728,80.5041 98.5,78.5C 98.5,77.8333 98.8333,77.5 99.5,77.5 Z"/></g>
<g><path style="opacity:1" fill="#e9e9e9" d="M 353.5,84.5 C 360.938,97.1469 365.605,110.814 367.5,125.5C 367.931,135.93 367.264,146.263 365.5,156.5C 364.521,153.375 364.187,150.042 364.5,146.5C 364.5,140.5 364.5,134.5 364.5,128.5C 364.001,124.51 363.501,120.51 363,116.5C 361.703,117.784 360.536,117.617 359.5,116C 359.833,115.667 360.167,115.333 360.5,115C 358.579,114.64 356.912,113.806 355.5,112.5C 354.914,112.709 354.414,113.043 354,113.5C 353.605,111.821 353.772,110.155 354.5,108.5C 353.244,108.001 352.41,106.668 352,104.5C 351.51,105.793 351.343,107.127 351.5,108.5C 342.798,108.224 334.132,108.557 325.5,109.5C 323.238,108.533 320.905,107.866 318.5,107.5C 318.5,108.5 318.5,109.5 318.5,110.5C 323.794,110.682 323.794,111.182 318.5,112C 319.28,113.073 319.113,114.24 318,115.5C 317.167,114.5 316.333,113.5 315.5,112.5C 314.494,112.938 314.494,113.604 315.5,114.5C 315.043,115.298 314.376,115.631 313.5,115.5C 303.637,95.0519 287.304,83.7186 264.5,81.5C 210.627,80.825 156.627,80.1584 102.5,79.5C 101.5,78.8333 100.5,78.1667 99.5,77.5C 97.5727,74.2327 95.2394,71.2327 92.5,68.5C 94.0174,68.4894 95.1841,67.8228 96,66.5C 97.3513,68.019 98.8513,69.3523 100.5,70.5C 99.9747,71.1924 99.3081,71.6924 98.5,72C 99.8932,73.1711 100.727,74.6711 101,76.5C 101.333,76.1667 101.667,75.8333 102,75.5C 103.622,77.5465 105.788,78.5465 108.5,78.5C 119.334,76.1201 130.334,74.7868 141.5,74.5C 144.339,74.3368 146.006,75.6701 146.5,78.5C 149.239,76.8791 152.239,75.8791 155.5,75.5C 157.596,77.0678 159.262,76.7344 160.5,74.5C 165.498,75.3482 170.498,76.3482 175.5,77.5C 177.187,77.2395 178.687,76.5728 180,75.5C 187.811,77.8246 195.644,77.8246 203.5,75.5C 207.245,76.1033 211.079,76.1033 215,75.5C 218.67,75.3826 222.17,76.0493 225.5,77.5C 233.47,76.3955 241.47,76.2289 249.5,77C 247.377,78.1937 245.043,78.8603 242.5,79C 248.157,79.4994 253.824,79.6661 259.5,79.5C 259.5,78.5 259.5,77.5 259.5,76.5C 261.401,76.4332 263.234,76.7665 265,77.5C 266.396,76.6057 267.896,75.9391 269.5,75.5C 281.129,76.7433 280.796,77.91 268.5,79C 270.727,79.121 272.56,79.9544 274,81.5C 276.37,80.8724 278.703,80.5391 281,80.5C 281.333,81.1667 281.667,81.8333 282,82.5C 284.584,81.1386 286.584,81.8052 288,84.5C 288.999,80.7628 290.332,80.7628 292,84.5C 291.954,82.6874 292.12,81.0207 292.5,79.5C 293.921,82.0094 295.588,84.3428 297.5,86.5C 296.975,87.1924 296.308,87.6924 295.5,88C 296.973,89.6723 297.807,91.5057 298,93.5C 299.631,92.5199 301.464,91.0199 303.5,89C 303.167,88.6667 302.833,88.3333 302.5,88C 303.103,86.1746 303.77,84.3413 304.5,82.5C 307.079,83.8883 307.079,85.3883 304.5,87C 306.556,87.3108 308.556,87.8108 310.5,88.5C 312.444,87.8108 314.444,87.3108 316.5,87C 315.5,86.1667 314.5,85.3333 313.5,84.5C 314.025,83.8076 314.692,83.3076 315.5,83C 319.018,83.5004 322.518,83.3337 326,82.5C 326.5,82.8333 327,83.1667 327.5,83.5C 325.833,84.6667 324.167,85.8333 322.5,87C 324.78,87.2117 326.78,88.0451 328.5,89.5C 330.059,88.5535 331.726,87.8868 333.5,87.5C 337.074,87.4006 340.741,87.734 344.5,88.5C 348.313,87.126 347.98,86.2926 343.5,86C 343.727,84.8647 344.06,83.698 344.5,82.5C 345.799,83.09 346.632,84.09 347,85.5C 348,84.8333 349,84.1667 350,83.5C 350.456,84.7441 349.956,85.5774 348.5,86C 350.238,88.6928 351.738,91.5261 353,94.5C 354.266,92.8038 354.1,90.9705 352.5,89C 353.38,87.6439 353.714,86.1439 353.5,84.5 Z"/></g>
<g><path style="opacity:1" fill="#e0e0e0" d="M 96.5,104.5 C 97.4986,145.997 97.832,187.663 97.5,229.5C 96.8333,234.5 96.1667,239.5 95.5,244.5C 95.5,242.167 95.5,239.833 95.5,237.5C 95.6464,216.156 95.3131,194.823 94.5,173.5C 94.5,168.833 94.5,164.167 94.5,159.5C 94.5,155.5 94.5,151.5 94.5,147.5C 94.6665,137.161 94.4998,126.828 94,116.5C 93.7508,117.624 93.2508,118.624 92.5,119.5C 91.7022,117.922 91.2022,116.256 91,114.5C 90.6667,116.833 90.3333,119.167 90,121.5C 89.6667,120.833 89.3333,120.167 89,119.5C 78.3027,119.924 67.4694,119.924 56.5,119.5C 54.5394,121.543 53.0394,120.877 52,117.5C 51.3333,120.167 50.6667,120.167 50,117.5C 49.79,119.058 49.29,120.391 48.5,121.5C 48.5,116.833 48.5,112.167 48.5,107.5C 49.3238,103.688 49.8238,99.6877 50,95.5C 50.5112,97.8782 51.1779,100.212 52,102.5C 52.8624,100.913 53.5291,99.2464 54,97.5C 54.3333,99.5 54.6667,101.5 55,103.5C 55.8178,98.2063 56.3178,98.2063 56.5,103.5C 57.5,103.5 58.5,103.5 59.5,103.5C 59.5,102.167 59.5,100.833 59.5,99.5C 65.1561,100.518 70.8228,100.684 76.5,100C 77.624,100.249 78.624,100.749 79.5,101.5C 66.2521,102.542 66.2521,103.542 79.5,104.5C 79.5,105.5 79.5,106.5 79.5,107.5C 83.0614,107.635 85.8948,106.302 88,103.5C 88.3242,105.569 89.1575,105.902 90.5,104.5C 92.2581,105.128 93.7581,106.128 95,107.5C 95.3333,130.833 95.6667,154.167 96,177.5C 96.5,153.169 96.6666,128.836 96.5,104.5 Z"/></g>
<g><path style="opacity:1" fill="#e3e4e4" d="M 364.5,128.5 C 362.501,129.857 361.335,129.19 361,126.5C 360.667,128.167 360.333,129.833 360,131.5C 356.117,129.647 351.951,128.313 347.5,127.5C 337.551,130.998 327.551,131.332 317.5,128.5C 317.5,127.833 317.167,127.5 316.5,127.5C 316.122,123.322 315.122,119.322 313.5,115.5C 314.376,115.631 315.043,115.298 315.5,114.5C 314.494,113.604 314.494,112.938 315.5,112.5C 316.333,113.5 317.167,114.5 318,115.5C 319.113,114.24 319.28,113.073 318.5,112C 323.794,111.182 323.794,110.682 318.5,110.5C 318.5,109.5 318.5,108.5 318.5,107.5C 320.905,107.866 323.238,108.533 325.5,109.5C 334.132,108.557 342.798,108.224 351.5,108.5C 351.343,107.127 351.51,105.793 352,104.5C 352.41,106.668 353.244,108.001 354.5,108.5C 353.772,110.155 353.605,111.821 354,113.5C 354.414,113.043 354.914,112.709 355.5,112.5C 356.912,113.806 358.579,114.64 360.5,115C 360.167,115.333 359.833,115.667 359.5,116C 360.536,117.617 361.703,117.784 363,116.5C 363.501,120.51 364.001,124.51 364.5,128.5 Z"/></g>
<g><path style="opacity:1" fill="#dcdddd" d="M 364.5,128.5 C 364.5,134.5 364.5,140.5 364.5,146.5C 362.589,146.426 361.422,145.426 361,143.5C 360.626,145.898 360.626,148.231 361,150.5C 359.957,148.299 359.123,145.966 358.5,143.5C 357.571,144.689 357.238,146.022 357.5,147.5C 354.031,146.887 352.031,148.221 351.5,151.5C 349.325,151.318 347.325,150.651 345.5,149.5C 341.017,151.464 336.35,152.797 331.5,153.5C 327.191,152.341 323.191,150.508 319.5,148C 318.775,141.534 318.109,135.034 317.5,128.5C 327.551,131.332 337.551,130.998 347.5,127.5C 351.951,128.313 356.117,129.647 360,131.5C 360.333,129.833 360.667,128.167 361,126.5C 361.335,129.19 362.501,129.857 364.5,128.5 Z"/></g>
<g><path style="opacity:1" fill="#d1d3d3" d="M 316.5,127.5 C 317.167,127.5 317.5,127.833 317.5,128.5C 318.109,135.034 318.775,141.534 319.5,148C 323.191,150.508 327.191,152.341 331.5,153.5C 336.35,152.797 341.017,151.464 345.5,149.5C 347.325,150.651 349.325,151.318 351.5,151.5C 352.031,148.221 354.031,146.887 357.5,147.5C 357.238,146.022 357.571,144.689 358.5,143.5C 359.123,145.966 359.957,148.299 361,150.5C 360.626,148.231 360.626,145.898 361,143.5C 361.422,145.426 362.589,146.426 364.5,146.5C 364.187,150.042 364.521,153.375 365.5,156.5C 364.528,167.463 361.195,177.463 355.5,186.5C 354.042,186.421 352.708,185.921 351.5,185C 351.833,184.667 352.167,184.333 352.5,184C 351.333,182.167 350.167,180.333 349,178.5C 347.637,180.784 346.137,180.951 344.5,179C 335.943,178.186 327.443,177.353 319,176.5C 317.135,178.673 314.969,179.007 312.5,177.5C 311.131,179.124 309.464,179.624 307.5,179C 308.711,178.107 308.711,177.274 307.5,176.5C 304.863,179.184 304.197,178.85 305.5,175.5C 306.167,174.5 306.833,173.5 307.5,172.5C 316.241,158.794 319.241,143.794 316.5,127.5 Z"/></g>
<g><path style="opacity:0.694" fill="#514f50" d="M 306.5,171.5 C 306.5,172.167 306.833,172.5 307.5,172.5C 306.833,173.5 306.167,174.5 305.5,175.5C 298.759,183.705 290.426,189.705 280.5,193.5C 275.667,195.291 270.667,196.291 265.5,196.5C 257.833,196.5 250.167,196.5 242.5,196.5C 242.5,195.833 242.167,195.5 241.5,195.5C 248.592,195.57 255.925,195.403 263.5,195C 281.316,193.31 295.65,185.477 306.5,171.5 Z"/></g>
<g><path style="opacity:0.306" fill="#4f4c4e" d="M 367.5,125.5 C 367.833,125.5 368.167,125.5 368.5,125.5C 370.821,144.756 368.321,163.423 361,181.5C 358.563,187.392 355.396,192.726 351.5,197.5C 351.167,197.5 350.833,197.5 350.5,197.5C 350.5,197.167 350.5,196.833 350.5,196.5C 352.713,193.408 354.379,190.074 355.5,186.5C 361.195,177.463 364.528,167.463 365.5,156.5C 367.264,146.263 367.931,135.93 367.5,125.5 Z"/></g>
<g><path style="opacity:1" fill="#bbbfc1" d="M 47.5,61.5 C 48.4962,76.6576 48.8295,91.9909 48.5,107.5C 48.5,112.167 48.5,116.833 48.5,121.5C 48.5,130.833 48.5,140.167 48.5,149.5C 48.5,152.167 48.5,154.833 48.5,157.5C 48.3336,165.507 48.5003,173.507 49,181.5C 49.3333,176.167 49.6667,170.833 50,165.5C 50.9494,168.355 52.6161,170.689 55,172.5C 57.4026,171.503 59.7359,171.836 62,173.5C 64.9614,171.633 68.1281,170.299 71.5,169.5C 71.5,170.5 71.5,171.5 71.5,172.5C 77.3027,173.087 82.8027,172.42 88,170.5C 88.6667,173.167 89.3333,173.167 90,170.5C 90.3333,173.167 90.6667,175.833 91,178.5C 91.3333,177.167 91.6667,175.833 92,174.5C 92.3333,174.833 92.6667,175.167 93,175.5C 93.2784,174.584 93.7784,173.918 94.5,173.5C 95.3131,194.823 95.6464,216.156 95.5,237.5C 94.5073,229.35 94.1739,221.017 94.5,212.5C 95.1,204.945 94.2667,197.612 92,190.5C 91,191.833 90,193.167 89,194.5C 88.5172,193.552 88.3505,192.552 88.5,191.5C 85.9373,190.8 83.4373,189.8 81,188.5C 77.5759,189.337 74.2426,189.67 71,189.5C 65.6667,188.833 60.3333,188.167 55,187.5C 54.0255,189.878 53.3589,189.544 53,186.5C 52.2904,187.973 51.1238,188.64 49.5,188.5C 49.8016,191.059 49.4682,193.393 48.5,195.5C 48.7678,193.901 48.4345,192.568 47.5,191.5C 47.5,148.167 47.5,104.833 47.5,61.5 Z"/></g>
<g><path style="opacity:1" fill="#c2c5c7" d="M 305.5,175.5 C 304.197,178.85 304.863,179.184 307.5,176.5C 308.711,177.274 308.711,178.107 307.5,179C 309.464,179.624 311.131,179.124 312.5,177.5C 314.969,179.007 317.135,178.673 319,176.5C 327.443,177.353 335.943,178.186 344.5,179C 346.137,180.951 347.637,180.784 349,178.5C 350.167,180.333 351.333,182.167 352.5,184C 352.167,184.333 351.833,184.667 351.5,185C 352.708,185.921 354.042,186.421 355.5,186.5C 354.379,190.074 352.713,193.408 350.5,196.5C 349.127,196.343 347.793,196.51 346.5,197C 348.595,197.556 348.762,198.056 347,198.5C 343.716,195.395 341.883,196.062 341.5,200.5C 338.654,200.809 337.154,202.475 337,205.5C 336.313,203.08 336.813,200.913 338.5,199C 337.809,197.933 337.309,196.766 337,195.5C 336.25,196.126 335.416,196.626 334.5,197C 334.833,197.333 335.167,197.667 335.5,198C 334.809,199.067 334.309,200.234 334,201.5C 331.63,200.872 329.297,200.539 327,200.5C 325.598,202.973 324.098,202.973 322.5,200.5C 316.494,201.828 310.494,201.828 304.5,200.5C 300.725,198.562 297.059,197.229 293.5,196.5C 292.749,197.376 292.249,198.376 292,199.5C 290.343,196.84 288.676,196.84 287,199.5C 285.765,198.385 284.598,198.385 283.5,199.5C 281.64,198.74 279.973,197.74 278.5,196.5C 279.6,195.442 280.934,194.608 282.5,194C 281.906,193.536 281.239,193.369 280.5,193.5C 290.426,189.705 298.759,183.705 305.5,175.5 Z"/></g>
<g><path style="opacity:1" fill="#6b6a6c" d="M 200.5,191.5 C 203.548,193.119 206.881,194.119 210.5,194.5C 189.993,194.17 169.66,194.503 149.5,195.5C 148.778,194.449 147.778,193.782 146.5,193.5C 164.402,192.821 182.402,192.154 200.5,191.5 Z"/></g>
<g><path style="opacity:1" fill="#878486" d="M 242.5,196.5 C 250.167,196.5 257.833,196.5 265.5,196.5C 258.167,197.167 250.833,197.833 243.5,198.5C 242.662,198.158 242.328,197.492 242.5,196.5 Z"/></g>
<g><path style="opacity:1" fill="#aeb3b6" d="M 94.5,212.5 C 93.7321,213.263 93.2321,214.263 93,215.5C 92.6667,213.833 92.3333,212.167 92,210.5C 91.6667,213.167 91.3333,215.833 91,218.5C 90.6667,216.167 90.3333,213.833 90,211.5C 88.4152,212.376 87.4152,213.709 87,215.5C 85.6201,212.942 84.1201,212.942 82.5,215.5C 81.7568,214.092 80.9234,212.759 80,211.5C 75.9879,212.239 71.9879,212.572 68,212.5C 62.9011,209.662 58.2344,209.996 54,213.5C 53.7978,211.744 53.2978,210.078 52.5,208.5C 51.1575,209.902 50.3242,209.569 50,207.5C 49.8267,213.016 49.3267,218.349 48.5,223.5C 48.5,214.167 48.5,204.833 48.5,195.5C 49.4682,193.393 49.8016,191.059 49.5,188.5C 51.1238,188.64 52.2904,187.973 53,186.5C 53.3589,189.544 54.0255,189.878 55,187.5C 60.3333,188.167 65.6667,188.833 71,189.5C 74.2426,189.67 77.5759,189.337 81,188.5C 83.4373,189.8 85.9373,190.8 88.5,191.5C 88.3505,192.552 88.5172,193.552 89,194.5C 90,193.167 91,191.833 92,190.5C 94.2667,197.612 95.1,204.945 94.5,212.5 Z"/></g>
<g><path style="opacity:1" fill="#e4e3e5" d="M 280.5,193.5 C 281.239,193.369 281.906,193.536 282.5,194C 280.934,194.608 279.6,195.442 278.5,196.5C 267.675,199.059 256.675,200.059 245.5,199.5C 244.833,199.167 244.167,198.833 243.5,198.5C 250.833,197.833 258.167,197.167 265.5,196.5C 270.667,196.291 275.667,195.291 280.5,193.5 Z"/></g>
<g><path style="opacity:1" fill="#b8bdbf" d="M 350.5,196.5 C 350.5,196.833 350.5,197.167 350.5,197.5C 347.071,202.019 343.404,206.352 339.5,210.5C 337.876,210.36 336.71,211.027 336,212.5C 335.667,211.833 335.333,211.167 335,210.5C 333.695,213.599 331.528,215.932 328.5,217.5C 328.36,216.431 328.36,215.264 328.5,214C 324.882,213.034 321.549,213.534 318.5,215.5C 313.771,212.951 308.771,212.118 303.5,213C 301.512,216.767 299.012,217.267 296,214.5C 295.481,215.516 294.647,216.182 293.5,216.5C 290.946,216.02 288.612,215.02 286.5,213.5C 283.064,214.192 279.73,215.192 276.5,216.5C 273.928,214.983 271.595,215.316 269.5,217.5C 268.833,217.167 268.167,216.833 267.5,216.5C 268.276,214.644 269.609,213.311 271.5,212.5C 271.291,211.914 270.957,211.414 270.5,211C 267.527,210.617 264.694,211.117 262,212.5C 260.541,209.408 258.374,208.742 255.5,210.5C 252.195,206.859 248.862,203.192 245.5,199.5C 256.675,200.059 267.675,199.059 278.5,196.5C 279.973,197.74 281.64,198.74 283.5,199.5C 284.598,198.385 285.765,198.385 287,199.5C 288.676,196.84 290.343,196.84 292,199.5C 292.249,198.376 292.749,197.376 293.5,196.5C 297.059,197.229 300.725,198.562 304.5,200.5C 310.494,201.828 316.494,201.828 322.5,200.5C 324.098,202.973 325.598,202.973 327,200.5C 329.297,200.539 331.63,200.872 334,201.5C 334.309,200.234 334.809,199.067 335.5,198C 335.167,197.667 334.833,197.333 334.5,197C 335.416,196.626 336.25,196.126 337,195.5C 337.309,196.766 337.809,197.933 338.5,199C 336.813,200.913 336.313,203.08 337,205.5C 337.154,202.475 338.654,200.809 341.5,200.5C 341.883,196.062 343.716,195.395 347,198.5C 348.762,198.056 348.595,197.556 346.5,197C 347.793,196.51 349.127,196.343 350.5,196.5 Z"/></g>
<g><path style="opacity:1" fill="#aeb3b5" d="M 230.5,221.5 C 228.871,223.06 227.704,222.727 227,220.5C 225.647,221.704 223.981,222.371 222,222.5C 215.867,221.714 209.701,220.714 203.5,219.5C 199.524,220.164 195.524,220.497 191.5,220.5C 191.5,219.5 191.5,218.5 191.5,217.5C 185.506,217.849 179.672,217.182 174,215.5C 172.915,216.736 172.082,218.069 171.5,219.5C 164.492,212.492 157.826,205.158 151.5,197.5C 170.811,196.204 190.144,196.204 209.5,197.5C 217.268,204.927 224.268,212.927 230.5,221.5 Z"/></g>
<g><path style="opacity:1" fill="#a4a9ac" d="M 230.5,221.5 C 238.862,230.859 247.195,240.192 255.5,249.5C 252.675,249.838 250.508,248.838 249,246.5C 248.517,247.448 248.351,248.448 248.5,249.5C 245.594,249.097 243.761,247.431 243,244.5C 242.632,245.91 241.799,246.91 240.5,247.5C 240.503,244.847 238.837,243.181 235.5,242.5C 231.511,242.838 227.511,243.172 223.5,243.5C 220.046,243.278 217.213,241.945 215,239.5C 214.632,240.91 213.799,241.91 212.5,242.5C 210.632,242.054 208.799,241.721 207,241.5C 203.935,243.898 200.768,245.231 197.5,245.5C 196.025,243.59 194.025,242.424 191.5,242C 190.878,238.018 188.544,235.851 184.5,235.5C 179.679,230.503 175.346,225.169 171.5,219.5C 172.082,218.069 172.915,216.736 174,215.5C 179.672,217.182 185.506,217.849 191.5,217.5C 191.5,218.5 191.5,219.5 191.5,220.5C 195.524,220.497 199.524,220.164 203.5,219.5C 209.701,220.714 215.867,221.714 222,222.5C 223.981,222.371 225.647,221.704 227,220.5C 227.704,222.727 228.871,223.06 230.5,221.5 Z"/></g>
<g><path style="opacity:1" fill="#5b595b" d="M 99.5,129.5 C 98.8333,205.5 98.1667,281.5 97.5,357.5C 97.5,354.5 97.5,351.5 97.5,348.5C 97.5,308.833 97.5,269.167 97.5,229.5C 97.832,187.663 97.4986,145.997 96.5,104.5C 80.8543,88.1877 64.8543,72.1877 48.5,56.5C 47.5481,58.0453 47.2148,59.712 47.5,61.5C 47.5,104.833 47.5,148.167 47.5,191.5C 47.5,193.5 47.5,195.5 47.5,197.5C 46.8333,194.833 46.1667,192.167 45.5,189.5C 45.3333,144.165 45.5,98.8321 46,53.5C 46.3333,53.1667 46.6667,52.8333 47,52.5C 63.4154,69.2503 80.082,85.5836 97,101.5C 97.6667,102.833 98.3333,104.167 99,105.5C 99.4997,113.493 99.6664,121.493 99.5,129.5 Z"/></g>
<g><path style="opacity:1" fill="#c6c9cb" d="M 94.5,159.5 C 94.5,164.167 94.5,168.833 94.5,173.5C 93.7784,173.918 93.2784,174.584 93,175.5C 92.6667,175.167 92.3333,174.833 92,174.5C 91.6667,175.833 91.3333,177.167 91,178.5C 90.6667,175.833 90.3333,173.167 90,170.5C 89.3333,173.167 88.6667,173.167 88,170.5C 82.8027,172.42 77.3027,173.087 71.5,172.5C 71.5,171.5 71.5,170.5 71.5,169.5C 68.1281,170.299 64.9614,171.633 62,173.5C 59.7359,171.836 57.4026,171.503 55,172.5C 52.6161,170.689 50.9494,168.355 50,165.5C 49.6667,170.833 49.3333,176.167 49,181.5C 48.5003,173.507 48.3336,165.507 48.5,157.5C 49.3091,155.708 49.8091,153.708 50,151.5C 52.0723,154.915 53.239,154.915 53.5,151.5C 58.7632,151.895 62.0965,154.562 63.5,159.5C 69.8046,159.059 75.9713,159.726 82,161.5C 85.9249,159.783 90.0916,159.116 94.5,159.5 Z"/></g>
<g><path style="opacity:1" fill="#d0d2d1" d="M 94.5,147.5 C 94.5,151.5 94.5,155.5 94.5,159.5C 90.0916,159.116 85.9249,159.783 82,161.5C 75.9713,159.726 69.8046,159.059 63.5,159.5C 62.0965,154.562 58.7632,151.895 53.5,151.5C 53.239,154.915 52.0723,154.915 50,151.5C 49.8091,153.708 49.3091,155.708 48.5,157.5C 48.5,154.833 48.5,152.167 48.5,149.5C 49.3091,147.708 49.8091,145.708 50,143.5C 50.8068,147.449 51.3068,147.449 51.5,143.5C 53.8967,144.368 56.3967,145.035 59,145.5C 62.1532,144.769 65.3198,144.103 68.5,143.5C 74.9992,145.456 81.6659,146.456 88.5,146.5C 88.3505,145.448 88.5172,144.448 89,143.5C 89.3333,145.167 89.6667,146.833 90,148.5C 90.3333,147.5 90.6667,146.5 91,145.5C 92.5961,144.952 93.7627,145.618 94.5,147.5 Z"/></g>
<g><path style="opacity:1" fill="#d9d9d9" d="M 94.5,147.5 C 93.7627,145.618 92.5961,144.952 91,145.5C 90.6667,146.5 90.3333,147.5 90,148.5C 89.6667,146.833 89.3333,145.167 89,143.5C 88.5172,144.448 88.3505,145.448 88.5,146.5C 81.6659,146.456 74.9992,145.456 68.5,143.5C 65.3198,144.103 62.1532,144.769 59,145.5C 56.3967,145.035 53.8967,144.368 51.5,143.5C 51.3068,147.449 50.8068,147.449 50,143.5C 49.8091,145.708 49.3091,147.708 48.5,149.5C 48.5,140.167 48.5,130.833 48.5,121.5C 49.29,120.391 49.79,119.058 50,117.5C 50.6667,120.167 51.3333,120.167 52,117.5C 53.0394,120.877 54.5394,121.543 56.5,119.5C 67.4694,119.924 78.3027,119.924 89,119.5C 89.3333,120.167 89.6667,120.833 90,121.5C 90.3333,119.167 90.6667,116.833 91,114.5C 91.2022,116.256 91.7022,117.922 92.5,119.5C 93.2508,118.624 93.7508,117.624 94,116.5C 94.4998,126.828 94.6665,137.161 94.5,147.5 Z"/></g>
<g><path style="opacity:1" fill="#ebebeb" d="M 96.5,104.5 C 96.6666,128.836 96.5,153.169 96,177.5C 95.6667,154.167 95.3333,130.833 95,107.5C 93.7581,106.128 92.2581,105.128 90.5,104.5C 89.1575,105.902 88.3242,105.569 88,103.5C 85.8948,106.302 83.0614,107.635 79.5,107.5C 79.5,106.5 79.5,105.5 79.5,104.5C 66.2521,103.542 66.2521,102.542 79.5,101.5C 78.624,100.749 77.624,100.249 76.5,100C 70.8228,100.684 65.1561,100.518 59.5,99.5C 59.5,100.833 59.5,102.167 59.5,103.5C 58.5,103.5 57.5,103.5 56.5,103.5C 56.3178,98.2063 55.8178,98.2063 55,103.5C 54.6667,101.5 54.3333,99.5 54,97.5C 53.5291,99.2464 52.8624,100.913 52,102.5C 51.1779,100.212 50.5112,97.8782 50,95.5C 49.8238,99.6877 49.3238,103.688 48.5,107.5C 48.8295,91.9909 48.4962,76.6576 47.5,61.5C 47.2148,59.712 47.5481,58.0453 48.5,56.5C 64.8543,72.1877 80.8543,88.1877 96.5,104.5 Z"/></g>
<g><path style="opacity:0.698" fill="#403f40" d="M 241.5,195.5 C 242.167,195.5 242.5,195.833 242.5,196.5C 242.328,197.492 242.662,198.158 243.5,198.5C 244.167,198.833 244.833,199.167 245.5,199.5C 248.862,203.192 252.195,206.859 255.5,210.5C 260.275,216.395 265.275,222.062 270.5,227.5C 274.497,233.162 279.164,238.162 284.5,242.5C 296.887,239.391 308.22,234.391 318.5,227.5C 326.374,222.964 333.374,217.297 339.5,210.5C 343.404,206.352 347.071,202.019 350.5,197.5C 350.833,197.5 351.167,197.5 351.5,197.5C 339.688,216.463 323.355,230.297 302.5,239C 296.381,241.373 290.214,243.539 284,245.5C 269,229.664 254.5,213.33 240.5,196.5C 240.624,195.893 240.957,195.56 241.5,195.5 Z"/></g>
<g><path style="opacity:1" fill="#a9aeb0" d="M 318.5,227.5 C 308.22,234.391 296.887,239.391 284.5,242.5C 279.164,238.162 274.497,233.162 270.5,227.5C 271.978,227.762 273.311,227.429 274.5,226.5C 274.015,223.888 274.849,223.888 277,226.5C 280.222,223.995 283.556,223.995 287,226.5C 291.333,225.833 295.667,225.167 300,224.5C 302.273,228.655 303.439,228.322 303.5,223.5C 306.898,223.858 310.065,223.192 313,221.5C 314.28,221.613 315.113,222.28 315.5,223.5C 314.397,223.998 313.397,224.331 312.5,224.5C 314.006,225.747 315.506,225.747 317,224.5C 317.617,225.449 317.451,226.282 316.5,227C 317.094,227.464 317.761,227.631 318.5,227.5 Z"/></g>
<g><path style="opacity:1" fill="#b0b5b7" d="M 339.5,210.5 C 333.374,217.297 326.374,222.964 318.5,227.5C 317.761,227.631 317.094,227.464 316.5,227C 317.451,226.282 317.617,225.449 317,224.5C 315.506,225.747 314.006,225.747 312.5,224.5C 313.397,224.331 314.397,223.998 315.5,223.5C 315.113,222.28 314.28,221.613 313,221.5C 310.065,223.192 306.898,223.858 303.5,223.5C 303.439,228.322 302.273,228.655 300,224.5C 295.667,225.167 291.333,225.833 287,226.5C 283.556,223.995 280.222,223.995 277,226.5C 274.849,223.888 274.015,223.888 274.5,226.5C 273.311,227.429 271.978,227.762 270.5,227.5C 265.275,222.062 260.275,216.395 255.5,210.5C 258.374,208.742 260.541,209.408 262,212.5C 264.694,211.117 267.527,210.617 270.5,211C 270.957,211.414 271.291,211.914 271.5,212.5C 269.609,213.311 268.276,214.644 267.5,216.5C 268.167,216.833 268.833,217.167 269.5,217.5C 271.595,215.316 273.928,214.983 276.5,216.5C 279.73,215.192 283.064,214.192 286.5,213.5C 288.612,215.02 290.946,216.02 293.5,216.5C 294.647,216.182 295.481,215.516 296,214.5C 299.012,217.267 301.512,216.767 303.5,213C 308.771,212.118 313.771,212.951 318.5,215.5C 321.549,213.534 324.882,213.034 328.5,214C 328.36,215.264 328.36,216.431 328.5,217.5C 331.528,215.932 333.695,213.599 335,210.5C 335.333,211.167 335.667,211.833 336,212.5C 336.71,211.027 337.876,210.36 339.5,210.5 Z"/></g>
<g><path style="opacity:0.724" fill="#3e3c3e" d="M 146.5,193.5 C 147.778,193.782 148.778,194.449 149.5,195.5C 150.5,195.833 151.167,196.5 151.5,197.5C 157.826,205.158 164.492,212.492 171.5,219.5C 175.346,225.169 179.679,230.503 184.5,235.5C 196.414,249.021 208.08,262.687 219.5,276.5C 221.367,277.76 222.7,279.427 223.5,281.5C 222.604,280.494 221.938,280.494 221.5,281.5C 196.028,252.548 171.028,223.214 146.5,193.5 Z"/></g>
<g><path style="opacity:1" fill="#9ba1a4" d="M 255.5,249.5 C 264.53,260.192 273.53,270.858 282.5,281.5C 280.833,281.5 279.167,281.5 277.5,281.5C 277.649,280.448 277.483,279.448 277,278.5C 276.667,278.833 276.333,279.167 276,279.5C 275.5,278.333 274.667,277.5 273.5,277C 273.833,276.667 274.167,276.333 274.5,276C 272.874,276.195 271.207,276.195 269.5,276C 267.908,273.782 265.908,272.115 263.5,271C 265.497,269.847 265.83,268.347 264.5,266.5C 263.808,267.025 263.308,267.692 263,268.5C 259.258,266.981 255.424,265.648 251.5,264.5C 246.535,266.174 242.201,265.174 238.5,261.5C 236.78,262.98 234.947,264.314 233,265.5C 228.141,261.026 222.307,259.192 215.5,260C 215.201,258.68 215.034,257.18 215,255.5C 212.467,254.128 209.8,253.128 207,252.5C 206.692,253.308 206.192,253.975 205.5,254.5C 202.417,251.758 199.751,248.758 197.5,245.5C 200.768,245.231 203.935,243.898 207,241.5C 208.799,241.721 210.632,242.054 212.5,242.5C 213.799,241.91 214.632,240.91 215,239.5C 217.213,241.945 220.046,243.278 223.5,243.5C 227.511,243.172 231.511,242.838 235.5,242.5C 238.837,243.181 240.503,244.847 240.5,247.5C 241.799,246.91 242.632,245.91 243,244.5C 243.761,247.431 245.594,249.097 248.5,249.5C 248.351,248.448 248.517,247.448 249,246.5C 250.508,248.838 252.675,249.838 255.5,249.5 Z"/></g>
<g><path style="opacity:1" fill="#d9dadc" d="M 149.5,195.5 C 169.66,194.503 189.993,194.17 210.5,194.5C 252.178,242.18 293.511,290.18 334.5,338.5C 334.672,339.492 334.338,340.158 333.5,340.5C 330.862,337.526 328.195,334.526 325.5,331.5C 321.511,326.179 317.178,321.179 312.5,316.5C 303.815,305.82 294.815,295.487 285.5,285.5C 284.853,283.859 283.853,282.526 282.5,281.5C 273.53,270.858 264.53,260.192 255.5,249.5C 247.195,240.192 238.862,230.859 230.5,221.5C 224.268,212.927 217.268,204.927 209.5,197.5C 190.144,196.204 170.811,196.204 151.5,197.5C 151.167,196.5 150.5,195.833 149.5,195.5 Z"/></g>
<g><path style="opacity:1" fill="#949b9e" d="M 184.5,235.5 C 188.544,235.851 190.878,238.018 191.5,242C 194.025,242.424 196.025,243.59 197.5,245.5C 199.751,248.758 202.417,251.758 205.5,254.5C 206.192,253.975 206.692,253.308 207,252.5C 209.8,253.128 212.467,254.128 215,255.5C 215.034,257.18 215.201,258.68 215.5,260C 222.307,259.192 228.141,261.026 233,265.5C 234.947,264.314 236.78,262.98 238.5,261.5C 242.201,265.174 246.535,266.174 251.5,264.5C 255.424,265.648 259.258,266.981 263,268.5C 263.308,267.692 263.808,267.025 264.5,266.5C 265.83,268.347 265.497,269.847 263.5,271C 265.908,272.115 267.908,273.782 269.5,276C 271.207,276.195 272.874,276.195 274.5,276C 274.167,276.333 273.833,276.667 273.5,277C 274.667,277.5 275.5,278.333 276,279.5C 276.333,279.167 276.667,278.833 277,278.5C 277.483,279.448 277.649,280.448 277.5,281.5C 279.167,281.5 280.833,281.5 282.5,281.5C 283.853,282.526 284.853,283.859 285.5,285.5C 283.488,284.986 281.488,284.82 279.5,285C 281.657,286.085 281.824,287.251 280,288.5C 277.262,287.518 274.428,286.852 271.5,286.5C 271.5,285.5 271.5,284.5 271.5,283.5C 268.383,283.128 265.383,283.128 262.5,283.5C 260.674,281.219 258.674,281.219 256.5,283.5C 255.672,282.585 254.672,281.919 253.5,281.5C 250.536,282.472 247.536,282.638 244.5,282C 241.58,280.215 239.58,278.048 238.5,275.5C 238.167,275.833 237.833,276.167 237.5,276.5C 238.853,277.524 239.52,278.857 239.5,280.5C 233.792,280.508 233.459,280.008 238.5,279C 234.001,276.499 230.834,277.666 229,282.5C 228.023,280.26 227.523,277.927 227.5,275.5C 225.508,275.328 223.842,275.995 222.5,277.5C 221.583,276.873 220.583,276.539 219.5,276.5C 208.08,262.687 196.414,249.021 184.5,235.5 Z"/></g>
<g><path style="opacity:0.949" fill="#4f4e52" d="M 214.5,313.5 C 214.062,312.494 213.396,312.494 212.5,313.5C 212.5,313.167 212.5,312.833 212.5,312.5C 213.167,311.833 213.833,311.167 214.5,310.5C 205.1,298.926 195.1,287.759 184.5,277C 183.002,276.415 182.002,276.915 181.5,278.5C 168.248,289.752 155.915,302.085 144.5,315.5C 138.14,321.194 132.14,327.194 126.5,333.5C 124.589,334.075 122.922,335.075 121.5,336.5C 121.167,336.5 120.833,336.5 120.5,336.5C 120.369,335.761 120.536,335.094 121,334.5C 141.446,315.387 161.279,295.554 180.5,275C 182.167,274.333 183.833,274.333 185.5,275C 194.754,285.977 204.587,296.477 215,306.5C 217.125,309.174 216.958,311.507 214.5,313.5 Z"/></g>
<g><path style="opacity:1" fill="#8e9699" d="M 285.5,285.5 C 294.815,295.487 303.815,305.82 312.5,316.5C 311.504,316.414 310.671,316.748 310,317.5C 308.786,315.951 307.286,314.785 305.5,314C 306.167,313.333 306.833,312.667 307.5,312C 304.538,310.436 301.538,310.269 298.5,311.5C 296.932,309.8 295.099,308.466 293,307.5C 292.138,305.913 291.471,304.246 291,302.5C 289.602,303.051 288.268,303.384 287,303.5C 284.062,298.116 281.729,298.45 280,304.5C 278.933,303.809 277.766,303.309 276.5,303C 279.384,301.963 280.05,300.129 278.5,297.5C 273.167,300.167 267.833,300.167 262.5,297.5C 261.554,297.987 260.554,298.32 259.5,298.5C 256.245,297.359 252.911,296.526 249.5,296C 254.473,295.208 254.306,294.042 249,292.5C 247.234,293.502 245.567,293.168 244,291.5C 244.875,293.311 245.209,295.311 245,297.5C 242.618,295.548 240.118,295.215 237.5,296.5C 232.833,291.5 228.167,286.5 223.5,281.5C 222.7,279.427 221.367,277.76 219.5,276.5C 220.583,276.539 221.583,276.873 222.5,277.5C 223.842,275.995 225.508,275.328 227.5,275.5C 227.523,277.927 228.023,280.26 229,282.5C 230.834,277.666 234.001,276.499 238.5,279C 233.459,280.008 233.792,280.508 239.5,280.5C 239.52,278.857 238.853,277.524 237.5,276.5C 237.833,276.167 238.167,275.833 238.5,275.5C 239.58,278.048 241.58,280.215 244.5,282C 247.536,282.638 250.536,282.472 253.5,281.5C 254.672,281.919 255.672,282.585 256.5,283.5C 258.674,281.219 260.674,281.219 262.5,283.5C 265.383,283.128 268.383,283.128 271.5,283.5C 271.5,284.5 271.5,285.5 271.5,286.5C 274.428,286.852 277.262,287.518 280,288.5C 281.824,287.251 281.657,286.085 279.5,285C 281.488,284.82 283.488,284.986 285.5,285.5 Z"/></g>
<g><path style="opacity:1" fill="#d3d4d7" d="M 214.5,310.5 C 213.448,310.649 212.448,310.483 211.5,310C 201.633,299.302 191.633,288.802 181.5,278.5C 182.002,276.915 183.002,276.415 184.5,277C 195.1,287.759 205.1,298.926 214.5,310.5 Z"/></g>
<g><path style="opacity:1" fill="#8e9598" d="M 181.5,278.5 C 191.633,288.802 201.633,299.302 211.5,310C 212.448,310.483 213.448,310.649 214.5,310.5C 213.833,311.167 213.167,311.833 212.5,312.5C 211.12,311.294 209.953,311.627 209,313.5C 205.794,311.876 203.128,312.542 201,315.5C 201.691,313.407 202.524,311.24 203.5,309C 202.669,305.892 201.836,306.059 201,309.5C 199.333,308.167 197.667,308.167 196,309.5C 194.581,308.54 193.081,307.707 191.5,307C 182.804,306.224 174.138,306.39 165.5,307.5C 163.181,306.936 160.847,306.436 158.5,306C 161.028,305.331 161.028,304.498 158.5,303.5C 156.493,305.008 154.826,306.842 153.5,309C 155.301,309.317 155.634,309.984 154.5,311C 153.256,311.456 152.423,310.956 152,309.5C 150.833,310.667 149.667,311.833 148.5,313C 150.301,313.317 150.634,313.984 149.5,315C 147.82,314.229 146.153,314.395 144.5,315.5C 155.915,302.085 168.248,289.752 181.5,278.5 Z"/></g>
<g><path style="opacity:1" fill="#858d90" d="M 212.5,312.5 C 212.5,312.833 212.5,313.167 212.5,313.5C 206.806,318.527 201.473,323.86 196.5,329.5C 195.778,329.082 195.278,328.416 195,327.5C 192.548,330.793 189.882,331.46 187,329.5C 185.221,332.276 184.221,331.943 184,328.5C 180.644,330.037 177.477,329.703 174.5,327.5C 170.765,330.361 167.099,330.694 163.5,328.5C 159.568,328.154 155.735,327.487 152,326.5C 148.644,328.037 145.477,327.703 142.5,325.5C 140.585,327.071 139.585,329.071 139.5,331.5C 137.037,331.781 134.87,332.781 133,334.5C 132.667,334.167 132.333,333.833 132,333.5C 131.692,334.308 131.192,334.975 130.5,335.5C 129.131,333.947 127.798,333.28 126.5,333.5C 132.14,327.194 138.14,321.194 144.5,315.5C 146.153,314.395 147.82,314.229 149.5,315C 150.634,313.984 150.301,313.317 148.5,313C 149.667,311.833 150.833,310.667 152,309.5C 152.423,310.956 153.256,311.456 154.5,311C 155.634,309.984 155.301,309.317 153.5,309C 154.826,306.842 156.493,305.008 158.5,303.5C 161.028,304.498 161.028,305.331 158.5,306C 160.847,306.436 163.181,306.936 165.5,307.5C 174.138,306.39 182.804,306.224 191.5,307C 193.081,307.707 194.581,308.54 196,309.5C 197.667,308.167 199.333,308.167 201,309.5C 201.836,306.059 202.669,305.892 203.5,309C 202.524,311.24 201.691,313.407 201,315.5C 203.128,312.542 205.794,311.876 209,313.5C 209.953,311.627 211.12,311.294 212.5,312.5 Z"/></g>
<g><path style="opacity:1" fill="#899194" d="M 312.5,316.5 C 317.178,321.179 321.511,326.179 325.5,331.5C 323.83,331.249 322.33,330.582 321,329.5C 320.517,330.448 320.351,331.448 320.5,332.5C 317.762,332.149 315.096,331.482 312.5,330.5C 311.548,332.045 311.215,333.712 311.5,335.5C 307.04,335.689 304.373,333.689 303.5,329.5C 295.267,329.522 287.434,330.188 280,331.5C 278.364,329.796 276.531,328.296 274.5,327C 276.256,326.798 277.922,326.298 279.5,325.5C 276.544,323.968 273.544,323.635 270.5,324.5C 270.167,324.167 269.833,323.833 269.5,323.5C 271.891,322.191 271.891,321.191 269.5,320.5C 267.239,321.648 264.905,322.148 262.5,322C 263.833,321.333 263.833,320.667 262.5,320C 260.514,320.794 258.681,320.294 257,318.5C 256.887,316.026 255.887,314.026 254,312.5C 253.722,313.416 253.222,314.082 252.5,314.5C 247.507,308.506 242.507,302.506 237.5,296.5C 240.118,295.215 242.618,295.548 245,297.5C 245.209,295.311 244.875,293.311 244,291.5C 245.567,293.168 247.234,293.502 249,292.5C 254.306,294.042 254.473,295.208 249.5,296C 252.911,296.526 256.245,297.359 259.5,298.5C 260.554,298.32 261.554,297.987 262.5,297.5C 267.833,300.167 273.167,300.167 278.5,297.5C 280.05,300.129 279.384,301.963 276.5,303C 277.766,303.309 278.933,303.809 280,304.5C 281.729,298.45 284.062,298.116 287,303.5C 288.268,303.384 289.602,303.051 291,302.5C 291.471,304.246 292.138,305.913 293,307.5C 295.099,308.466 296.932,309.8 298.5,311.5C 301.538,310.269 304.538,310.436 307.5,312C 306.833,312.667 306.167,313.333 305.5,314C 307.286,314.785 308.786,315.951 310,317.5C 310.671,316.748 311.504,316.414 312.5,316.5 Z"/></g>
<g><path style="opacity:1" fill="#858c8f" d="M 325.5,331.5 C 328.195,334.526 330.862,337.526 333.5,340.5C 342.077,350.758 350.743,361.091 359.5,371.5C 357.193,371.014 355.027,371.014 353,371.5C 352.667,370.5 352.333,369.5 352,368.5C 351.667,370.833 351.333,373.167 351,375.5C 350.581,374.328 349.915,373.328 349,372.5C 348.333,374.5 347.667,376.5 347,378.5C 344.604,373.761 341.77,369.261 338.5,365C 337.551,364.383 336.718,364.549 336,365.5C 333.31,364.071 330.477,363.071 327.5,362.5C 327.649,361.448 327.483,360.448 327,359.5C 325.249,364.156 323.082,364.489 320.5,360.5C 324.201,359.263 324.034,357.93 320,356.5C 319.506,354.866 319.34,353.199 319.5,351.5C 314.167,351.5 308.833,351.5 303.5,351.5C 303.65,348.074 302.484,347.741 300,350.5C 298.257,348.679 296.757,346.679 295.5,344.5C 292.476,342.478 289.143,341.478 285.5,341.5C 285.36,343.124 286.027,344.29 287.5,345C 286.975,345.692 286.308,346.192 285.5,346.5C 283.08,343.8 280.08,342.466 276.5,342.5C 268.51,333.207 260.51,323.874 252.5,314.5C 253.222,314.082 253.722,313.416 254,312.5C 255.887,314.026 256.887,316.026 257,318.5C 258.681,320.294 260.514,320.794 262.5,320C 263.833,320.667 263.833,321.333 262.5,322C 264.905,322.148 267.239,321.648 269.5,320.5C 271.891,321.191 271.891,322.191 269.5,323.5C 269.833,323.833 270.167,324.167 270.5,324.5C 273.544,323.635 276.544,323.968 279.5,325.5C 277.922,326.298 276.256,326.798 274.5,327C 276.531,328.296 278.364,329.796 280,331.5C 287.434,330.188 295.267,329.522 303.5,329.5C 304.373,333.689 307.04,335.689 311.5,335.5C 311.215,333.712 311.548,332.045 312.5,330.5C 315.096,331.482 317.762,332.149 320.5,332.5C 320.351,331.448 320.517,330.448 321,329.5C 322.33,330.582 323.83,331.249 325.5,331.5 Z"/></g>
<g><path style="opacity:1" fill="#7e8387" d="M 196.5,329.5 C 184.22,341.445 171.887,353.445 159.5,365.5C 157.922,364.934 156.588,363.934 155.5,362.5C 155.709,361.914 156.043,361.414 156.5,361C 155.256,360.544 154.423,361.044 154,362.5C 153.641,359.456 152.974,359.122 152,361.5C 151.692,360.692 151.192,360.025 150.5,359.5C 149.719,360.729 149.219,362.062 149,363.5C 148.451,359.383 146.784,358.716 144,361.5C 141.544,359.679 138.711,359.012 135.5,359.5C 135.276,361.787 134.609,363.953 133.5,366C 134.878,368.098 134.544,369.932 132.5,371.5C 131.571,370.311 131.238,368.978 131.5,367.5C 130.5,367.5 129.5,367.5 128.5,367.5C 129.042,371.544 128.209,375.211 126,378.5C 125.846,375.475 124.346,373.809 121.5,373.5C 121.5,361.167 121.5,348.833 121.5,336.5C 122.922,335.075 124.589,334.075 126.5,333.5C 127.798,333.28 129.131,333.947 130.5,335.5C 131.192,334.975 131.692,334.308 132,333.5C 132.333,333.833 132.667,334.167 133,334.5C 134.87,332.781 137.037,331.781 139.5,331.5C 139.585,329.071 140.585,327.071 142.5,325.5C 145.477,327.703 148.644,328.037 152,326.5C 155.735,327.487 159.568,328.154 163.5,328.5C 167.099,330.694 170.765,330.361 174.5,327.5C 177.477,329.703 180.644,330.037 184,328.5C 184.221,331.943 185.221,332.276 187,329.5C 189.882,331.46 192.548,330.793 195,327.5C 195.278,328.416 195.778,329.082 196.5,329.5 Z"/></g>
<g><path style="opacity:0.367" fill="#302f32" d="M 223.5,281.5 C 228.167,286.5 232.833,291.5 237.5,296.5C 242.507,302.506 247.507,308.506 252.5,314.5C 260.51,323.874 268.51,333.207 276.5,342.5C 285.419,354.563 295.253,365.897 306,376.5C 309.015,379.878 311.515,383.544 313.5,387.5C 282.489,352.487 251.822,317.154 221.5,281.5C 221.938,280.494 222.604,280.494 223.5,281.5 Z"/></g>
<g><path style="opacity:1" fill="#7f868b" d="M 359.5,371.5 C 369.167,382.833 378.833,394.167 388.5,405.5C 369.167,405.5 349.833,405.5 330.5,405.5C 325.481,398.817 319.815,392.817 313.5,387.5C 311.515,383.544 309.015,379.878 306,376.5C 295.253,365.897 285.419,354.563 276.5,342.5C 280.08,342.466 283.08,343.8 285.5,346.5C 286.308,346.192 286.975,345.692 287.5,345C 286.027,344.29 285.36,343.124 285.5,341.5C 289.143,341.478 292.476,342.478 295.5,344.5C 296.757,346.679 298.257,348.679 300,350.5C 302.484,347.741 303.65,348.074 303.5,351.5C 308.833,351.5 314.167,351.5 319.5,351.5C 319.34,353.199 319.506,354.866 320,356.5C 324.034,357.93 324.201,359.263 320.5,360.5C 323.082,364.489 325.249,364.156 327,359.5C 327.483,360.448 327.649,361.448 327.5,362.5C 330.477,363.071 333.31,364.071 336,365.5C 336.718,364.549 337.551,364.383 338.5,365C 341.77,369.261 344.604,373.761 347,378.5C 347.667,376.5 348.333,374.5 349,372.5C 349.915,373.328 350.581,374.328 351,375.5C 351.333,373.167 351.667,370.833 352,368.5C 352.333,369.5 352.667,370.5 353,371.5C 355.027,371.014 357.193,371.014 359.5,371.5 Z"/></g>
<g><path style="opacity:0.827" fill="#4c4a4c" d="M 200.5,191.5 C 204.707,192.069 208.873,192.736 213,193.5C 273.399,263.725 333.566,334.059 393.5,404.5C 383.355,405.832 372.855,406.499 362,406.5C 351.328,406.5 340.828,406.167 330.5,405.5C 349.833,405.5 369.167,405.5 388.5,405.5C 389.675,405.719 390.675,405.386 391.5,404.5C 372.448,382.455 353.448,360.455 334.5,338.5C 293.511,290.18 252.178,242.18 210.5,194.5C 206.881,194.119 203.548,193.119 200.5,191.5 Z"/></g>
<g><path style="opacity:1" fill="#cccccf" d="M 334.5,338.5 C 353.448,360.455 372.448,382.455 391.5,404.5C 390.675,405.386 389.675,405.719 388.5,405.5C 378.833,394.167 369.167,382.833 359.5,371.5C 350.743,361.091 342.077,350.758 333.5,340.5C 334.338,340.158 334.672,339.492 334.5,338.5 Z"/></g>
<g><path style="opacity:1" fill="#767b7f" d="M 159.5,365.5 C 148.752,376.914 137.752,387.914 126.5,398.5C 124.629,398.859 123.129,399.859 122,401.5C 121.5,392.173 121.334,382.839 121.5,373.5C 124.346,373.809 125.846,375.475 126,378.5C 128.209,375.211 129.042,371.544 128.5,367.5C 129.5,367.5 130.5,367.5 131.5,367.5C 131.238,368.978 131.571,370.311 132.5,371.5C 134.544,369.932 134.878,368.098 133.5,366C 134.609,363.953 135.276,361.787 135.5,359.5C 138.711,359.012 141.544,359.679 144,361.5C 146.784,358.716 148.451,359.383 149,363.5C 149.219,362.062 149.719,360.729 150.5,359.5C 151.192,360.025 151.692,360.692 152,361.5C 152.974,359.122 153.641,359.456 154,362.5C 154.423,361.044 155.256,360.544 156.5,361C 156.043,361.414 155.709,361.914 155.5,362.5C 156.588,363.934 157.922,364.934 159.5,365.5 Z"/></g>
<g><path style="opacity:0.365" fill="#2c2b2d" d="M 214.5,313.5 C 185.062,342.438 155.728,371.605 126.5,401C 125.906,401.464 125.239,401.631 124.5,401.5C 125.167,400.5 125.833,399.5 126.5,398.5C 137.752,387.914 148.752,376.914 159.5,365.5C 171.887,353.445 184.22,341.445 196.5,329.5C 201.473,323.86 206.806,318.527 212.5,313.5C 213.396,312.494 214.062,312.494 214.5,313.5 Z"/></g>
<g><path style="opacity:0.651" fill="#3f3e40" d="M 99.5,129.5 C 99.6667,206.167 99.5,282.834 99,359.5C 82.2569,377.079 64.7569,393.746 46.5,409.5C 45.5,336.17 45.1667,262.836 45.5,189.5C 46.1667,192.167 46.8333,194.833 47.5,197.5C 47.5,231.833 47.5,266.167 47.5,300.5C 47.1668,335.506 47.5001,370.506 48.5,405.5C 57.8274,396.506 67.1607,387.506 76.5,378.5C 83.1937,372.473 89.5271,366.14 95.5,359.5C 96.1667,358.833 96.8333,358.167 97.5,357.5C 98.1667,281.5 98.8333,205.5 99.5,129.5 Z"/></g>
<g><path style="opacity:1" fill="#71787b" d="M 47.5,300.5 C 48.4511,301.919 48.7845,303.585 48.5,305.5C 48.5,320.5 48.5,335.5 48.5,350.5C 48.1744,354.884 48.5078,359.217 49.5,363.5C 50.2811,362.271 50.7811,360.938 51,359.5C 51.3333,362.167 51.6667,364.833 52,367.5C 52.6667,368.833 53.3333,368.833 54,367.5C 54.3333,369.5 54.6667,371.5 55,373.5C 55.4986,369.848 55.6653,366.182 55.5,362.5C 58.1667,362.5 60.8333,362.5 63.5,362.5C 63.5,364.5 63.5,366.5 63.5,368.5C 66.2469,368.187 68.9135,368.52 71.5,369.5C 72.3805,370.971 73.7139,371.804 75.5,372C 74.9026,373.889 74.5693,375.722 74.5,377.5C 74.9569,378.298 75.6236,378.631 76.5,378.5C 67.1607,387.506 57.8274,396.506 48.5,405.5C 47.5001,370.506 47.1668,335.506 47.5,300.5 Z"/></g>
<g><path style="opacity:1" fill="#787e82" d="M 94.5,332.5 C 94.1734,341.682 94.5067,350.682 95.5,359.5C 89.5271,366.14 83.1937,372.473 76.5,378.5C 75.6236,378.631 74.9569,378.298 74.5,377.5C 74.5693,375.722 74.9026,373.889 75.5,372C 73.7139,371.804 72.3805,370.971 71.5,369.5C 68.9135,368.52 66.2469,368.187 63.5,368.5C 63.5,366.5 63.5,364.5 63.5,362.5C 60.8333,362.5 58.1667,362.5 55.5,362.5C 55.6653,366.182 55.4986,369.848 55,373.5C 54.6667,371.5 54.3333,369.5 54,367.5C 53.3333,368.833 52.6667,368.833 52,367.5C 51.6667,364.833 51.3333,362.167 51,359.5C 50.7811,360.938 50.2811,362.271 49.5,363.5C 48.5078,359.217 48.1744,354.884 48.5,350.5C 49.6352,345.959 50.8019,341.292 52,336.5C 52.3333,339.167 52.6667,341.833 53,344.5C 53.3589,341.456 54.0255,341.122 55,343.5C 55.056,340.22 55.8893,337.22 57.5,334.5C 57.2907,333.914 56.9574,333.414 56.5,333C 58.0488,331.786 59.2155,330.286 60,328.5C 62.6578,327.306 63.8244,328.306 63.5,331.5C 66.2646,331.798 68.7646,332.798 71,334.5C 71.4828,333.552 71.6495,332.552 71.5,331.5C 77.5794,331.538 83.2461,333.205 88.5,336.5C 87.1451,337.675 87.3117,338.675 89,339.5C 89.3333,335.5 89.6667,331.5 90,327.5C 90.3333,331.167 90.6667,334.833 91,338.5C 91.3589,335.456 92.0255,335.122 93,337.5C 93.1981,335.618 93.6981,333.952 94.5,332.5 Z"/></g>
<g><path style="opacity:1" fill="#b0b0b2" d="M 97.5,229.5 C 97.5,269.167 97.5,308.833 97.5,348.5C 96.6862,350.631 96.1862,352.964 96,355.5C 95.5,333.836 95.3334,312.169 95.5,290.5C 95.5,275.167 95.5,259.833 95.5,244.5C 96.1667,239.5 96.8333,234.5 97.5,229.5 Z"/></g>
<g><path style="opacity:1" fill="#7f878a" d="M 94.5,332.5 C 93.6981,333.952 93.1981,335.618 93,337.5C 92.0255,335.122 91.3589,335.456 91,338.5C 90.6667,334.833 90.3333,331.167 90,327.5C 89.6667,331.5 89.3333,335.5 89,339.5C 87.3117,338.675 87.1451,337.675 88.5,336.5C 83.2461,333.205 77.5794,331.538 71.5,331.5C 71.6495,332.552 71.4828,333.552 71,334.5C 68.7646,332.798 66.2646,331.798 63.5,331.5C 63.8244,328.306 62.6578,327.306 60,328.5C 59.2155,330.286 58.0488,331.786 56.5,333C 56.9574,333.414 57.2907,333.914 57.5,334.5C 55.8893,337.22 55.056,340.22 55,343.5C 54.0255,341.122 53.3589,341.456 53,344.5C 52.6667,341.833 52.3333,339.167 52,336.5C 50.8019,341.292 49.6352,345.959 48.5,350.5C 48.5,335.5 48.5,320.5 48.5,305.5C 49.5585,304.4 50.3918,303.066 51,301.5C 51.6667,302.833 52.3333,304.167 53,305.5C 53.3333,305.167 53.6667,304.833 54,304.5C 55.4194,305.46 56.9194,306.293 58.5,307C 57.8333,307.333 57.1667,307.667 56.5,308C 57.8732,308.875 59.3732,309.375 61,309.5C 65.8232,308.289 70.6566,308.289 75.5,309.5C 78.0466,309.558 80.3799,308.891 82.5,307.5C 84.8088,308.933 86.3088,308.266 87,305.5C 88.2156,307.962 88.8823,310.629 89,313.5C 89.3333,312.167 89.6667,310.833 90,309.5C 90.5205,317.834 91.1872,318.167 92,310.5C 92.3333,316.5 92.6667,322.5 93,328.5C 93.3333,319.167 93.6667,309.833 94,300.5C 94.4998,311.161 94.6665,321.828 94.5,332.5 Z"/></g>
<g><path style="opacity:1" fill="#899093" d="M 47.5,191.5 C 48.4345,192.568 48.7678,193.901 48.5,195.5C 48.5,204.833 48.5,214.167 48.5,223.5C 48.5,231.5 48.5,239.5 48.5,247.5C 48.5,250.167 48.5,252.833 48.5,255.5C 48.3334,268.837 48.5001,282.171 49,295.5C 50,287.5 51,279.5 52,271.5C 52.3333,275.5 52.6667,279.5 53,283.5C 53.3333,281.5 53.6667,279.5 54,277.5C 56.6013,278.726 57.4347,278.06 56.5,275.5C 61.4259,274.259 66.4259,273.426 71.5,273C 70.5,272.667 69.5,272.333 68.5,272C 70.8087,271.244 72.8087,271.744 74.5,273.5C 76.306,272.141 77.806,272.475 79,274.5C 81.8365,273.735 84.6698,274.068 87.5,275.5C 88.2811,274.271 88.7811,272.938 89,271.5C 89.3333,273.5 89.6667,275.5 90,277.5C 90.3333,276.5 90.6667,275.5 91,274.5C 91.5345,280.238 92.7011,285.571 94.5,290.5C 94.8333,290.5 95.1667,290.5 95.5,290.5C 95.3334,312.169 95.5,333.836 96,355.5C 96.1862,352.964 96.6862,350.631 97.5,348.5C 97.5,351.5 97.5,354.5 97.5,357.5C 96.8333,358.167 96.1667,358.833 95.5,359.5C 94.5067,350.682 94.1734,341.682 94.5,332.5C 94.6665,321.828 94.4998,311.161 94,300.5C 93.6667,309.833 93.3333,319.167 93,328.5C 92.6667,322.5 92.3333,316.5 92,310.5C 91.1872,318.167 90.5205,317.834 90,309.5C 89.6667,310.833 89.3333,312.167 89,313.5C 88.8823,310.629 88.2156,307.962 87,305.5C 86.3088,308.266 84.8088,308.933 82.5,307.5C 80.3799,308.891 78.0466,309.558 75.5,309.5C 70.6566,308.289 65.8232,308.289 61,309.5C 59.3732,309.375 57.8732,308.875 56.5,308C 57.1667,307.667 57.8333,307.333 58.5,307C 56.9194,306.293 55.4194,305.46 54,304.5C 53.6667,304.833 53.3333,305.167 53,305.5C 52.3333,304.167 51.6667,302.833 51,301.5C 50.3918,303.066 49.5585,304.4 48.5,305.5C 48.7845,303.585 48.4511,301.919 47.5,300.5C 47.5,266.167 47.5,231.833 47.5,197.5C 47.5,195.5 47.5,193.5 47.5,191.5 Z"/></g>
<g><path style="opacity:1" fill="#91989b" d="M 94.5,255.5 C 94.5,267.167 94.5,278.833 94.5,290.5C 92.7011,285.571 91.5345,280.238 91,274.5C 90.6667,275.5 90.3333,276.5 90,277.5C 89.6667,275.5 89.3333,273.5 89,271.5C 88.7811,272.938 88.2811,274.271 87.5,275.5C 84.6698,274.068 81.8365,273.735 79,274.5C 77.806,272.475 76.306,272.141 74.5,273.5C 72.8087,271.744 70.8087,271.244 68.5,272C 69.5,272.333 70.5,272.667 71.5,273C 66.4259,273.426 61.4259,274.259 56.5,275.5C 57.4347,278.06 56.6013,278.726 54,277.5C 53.6667,279.5 53.3333,281.5 53,283.5C 52.6667,279.5 52.3333,275.5 52,271.5C 51,279.5 50,287.5 49,295.5C 48.5001,282.171 48.3334,268.837 48.5,255.5C 53.1772,254.331 55.3439,256.331 55,261.5C 57.8872,258.221 61.0538,257.887 64.5,260.5C 67.167,257.082 70.167,256.749 73.5,259.5C 75.7738,258.779 77.6071,257.446 79,255.5C 80.859,256.112 82.859,256.112 85,255.5C 88.8686,258.135 91.2019,256.801 92,251.5C 92.3333,253.5 92.6667,255.5 93,257.5C 93.2784,256.584 93.7784,255.918 94.5,255.5 Z"/></g>
<g><path style="opacity:1" fill="#989fa1" d="M 94.5,255.5 C 93.7784,255.918 93.2784,256.584 93,257.5C 92.6667,255.5 92.3333,253.5 92,251.5C 91.2019,256.801 88.8686,258.135 85,255.5C 82.859,256.112 80.859,256.112 79,255.5C 77.6071,257.446 75.7738,258.779 73.5,259.5C 70.167,256.749 67.167,257.082 64.5,260.5C 61.0538,257.887 57.8872,258.221 55,261.5C 55.3439,256.331 53.1772,254.331 48.5,255.5C 48.5,252.833 48.5,250.167 48.5,247.5C 49.3019,246.048 49.8019,244.382 50,242.5C 50.3173,244.301 50.984,244.634 52,243.5C 54.4606,245.509 56.9606,245.676 59.5,244C 54.2158,242.622 54.2158,241.289 59.5,240C 66.1583,239.5 72.825,239.334 79.5,239.5C 79.238,238.022 79.5713,236.689 80.5,235.5C 82.6179,236.946 84.9512,237.613 87.5,237.5C 87.3367,239.857 87.5034,242.19 88,244.5C 89.7165,243.448 90.7165,244.114 91,246.5C 91.3333,243.833 91.6667,241.167 92,238.5C 92.3333,240.5 92.6667,242.5 93,244.5C 93.3333,243.5 93.6667,242.5 94,241.5C 94.4992,246.155 94.6658,250.821 94.5,255.5 Z"/></g>
<g><path style="opacity:1" fill="#a1a6a9" d="M 94.5,212.5 C 94.1739,221.017 94.5073,229.35 95.5,237.5C 95.5,239.833 95.5,242.167 95.5,244.5C 95.5,259.833 95.5,275.167 95.5,290.5C 95.1667,290.5 94.8333,290.5 94.5,290.5C 94.5,278.833 94.5,267.167 94.5,255.5C 94.6658,250.821 94.4992,246.155 94,241.5C 93.6667,242.5 93.3333,243.5 93,244.5C 92.6667,242.5 92.3333,240.5 92,238.5C 91.6667,241.167 91.3333,243.833 91,246.5C 90.7165,244.114 89.7165,243.448 88,244.5C 87.5034,242.19 87.3367,239.857 87.5,237.5C 84.9512,237.613 82.6179,236.946 80.5,235.5C 79.5713,236.689 79.238,238.022 79.5,239.5C 72.825,239.334 66.1583,239.5 59.5,240C 54.2158,241.289 54.2158,242.622 59.5,244C 56.9606,245.676 54.4606,245.509 52,243.5C 50.984,244.634 50.3173,244.301 50,242.5C 49.8019,244.382 49.3019,246.048 48.5,247.5C 48.5,239.5 48.5,231.5 48.5,223.5C 49.3267,218.349 49.8267,213.016 50,207.5C 50.3242,209.569 51.1575,209.902 52.5,208.5C 53.2978,210.078 53.7978,211.744 54,213.5C 58.2344,209.996 62.9011,209.662 68,212.5C 71.9879,212.572 75.9879,212.239 80,211.5C 80.9234,212.759 81.7568,214.092 82.5,215.5C 84.1201,212.942 85.6201,212.942 87,215.5C 87.4152,213.709 88.4152,212.376 90,211.5C 90.3333,213.833 90.6667,216.167 91,218.5C 91.3333,215.833 91.6667,213.167 92,210.5C 92.3333,212.167 92.6667,213.833 93,215.5C 93.2321,214.263 93.7321,213.263 94.5,212.5 Z"/></g>
<g><path style="opacity:0.882" fill="#414144" d="M 120.5,336.5 C 120.833,336.5 121.167,336.5 121.5,336.5C 121.5,348.833 121.5,361.167 121.5,373.5C 121.334,382.839 121.5,392.173 122,401.5C 123.129,399.859 124.629,398.859 126.5,398.5C 125.833,399.5 125.167,400.5 124.5,401.5C 123.292,404.044 121.292,405.378 118.5,405.5C 118.333,382.831 118.5,360.164 119,337.5C 119.383,336.944 119.883,336.611 120.5,336.5 Z"/></g>
<g><path style="opacity:0.818" fill="#2a292d" d="M 313.5,387.5 C 319.815,392.817 325.481,398.817 330.5,405.5C 340.828,406.167 351.328,406.5 362,406.5C 372.855,406.499 383.355,405.832 393.5,404.5C 395.466,405.255 395.8,406.421 394.5,408C 373.5,408.667 352.5,408.667 331.5,408C 329.04,406.542 326.873,404.709 325,402.5C 321.31,397.32 317.477,392.32 313.5,387.5 Z"/></g>
</svg>
