<svg width="156" height="129" viewBox="0 0 156 129" fill="none" xmlns="http://www.w3.org/2000/svg">
<path d="M75.4124 101.733L75.3105 101.437" stroke="white" stroke-miterlimit="10"/>
<path d="M146.37 77.7941L125.672 17.6737C123.847 12.3737 118.071 9.55642 112.771 11.3811L11.7237 46.1701C6.42366 47.9948 3.60636 53.7706 5.43106 59.0706L26.1295 119.191C27.9542 124.491 33.7299 127.308 39.0299 125.483L140.078 90.6945C145.378 88.8698 148.195 83.0941 146.37 77.7941Z" fill="white" stroke="#1B1837" stroke-miterlimit="10"/>
<path d="M149.758 69.7169L129.06 9.59655C127.235 4.29654 121.459 1.47924 116.159 3.30395L15.1115 38.093C9.81152 39.9177 6.99422 45.6934 8.81893 50.9934L29.5173 111.114C31.342 116.414 37.1178 119.231 42.4178 117.406L143.465 82.6173C148.765 80.7926 151.583 75.0169 149.758 69.7169Z" fill="#F6E6FF" stroke="black" stroke-miterlimit="10"/>
<mask id="mask0_606_112" style="mask-type:luminance" maskUnits="userSpaceOnUse" x="8" y="2" width="143" height="116">
<path d="M149.48 69.8128L128.781 9.69246C126.957 4.39246 121.181 1.57516 115.881 3.39986L15.3722 38.0033C10.0722 39.828 7.25488 45.6037 9.07958 50.9037L29.778 111.024C31.6027 116.324 37.3784 119.141 42.6784 117.317L143.187 82.7132C148.487 80.8885 151.304 75.1128 149.48 69.8128Z" fill="white"/>
</mask>
<g mask="url(#mask0_606_112)">
<path d="M142.842 10.8679L-6.78659 62.3825L-1.42691 77.9502L148.202 26.4356L142.842 10.8679Z" fill="#B748FF"/>
</g>
<path d="M82.2493 56.099L31.3286 73.6301C29.4147 74.2891 28.3973 76.3747 29.0562 78.2886L30.8673 83.5489C31.5262 85.4628 33.6119 86.4802 35.5258 85.8213L86.4465 68.2901C88.3604 67.6312 89.3777 65.5455 88.7188 63.6316L86.9078 58.3713C86.2488 56.4574 84.1632 55.4401 82.2493 56.099Z" fill="#E6C5FF"/>
<path d="M42.5128 88.3521L37.0452 90.2345C35.1313 90.8934 34.1139 92.9791 34.7728 94.893L36.5839 100.153C37.2428 102.067 39.3285 103.085 41.2423 102.426L46.71 100.543C48.6239 99.8843 49.6412 97.7986 48.9823 95.8847L47.1713 90.6244C46.5124 88.7105 44.4267 87.6931 42.5128 88.3521Z" fill="#E6C5FF"/>
<path d="M107.556 47.3864L94.245 51.9691C92.3311 52.628 91.3137 54.7136 91.9726 56.6275L93.7837 61.8879C94.4426 63.8017 96.5283 64.8191 98.4422 64.1602L111.753 59.5775C113.667 58.9186 114.684 56.8329 114.025 54.919L112.214 49.6587C111.555 47.7448 109.47 46.7275 107.556 47.3864Z" fill="#E6C5FF"/>
</svg>
