<svg width="147" height="147" viewBox="0 0 147 147" fill="none" xmlns="http://www.w3.org/2000/svg">
<path d="M84.4949 115.8C107.857 109.727 121.872 85.8665 115.8 62.505C109.727 39.1434 85.8665 25.1278 62.5049 31.2002C39.1434 37.2726 25.1277 61.1335 31.2001 84.495C37.2725 107.857 61.1334 121.872 84.4949 115.8Z" fill="white" stroke="black" stroke-miterlimit="10"/>
<path d="M82.5161 108.187C101.673 103.207 113.166 83.6408 108.186 64.484C103.207 45.3272 83.6408 33.8342 64.484 38.8136C45.3271 43.7931 33.8341 63.3594 38.8136 82.5162C43.793 101.673 63.3593 113.166 82.5161 108.187Z" fill="#D9FBFF"/>
<path d="M89.8888 78.7251C91.5114 84.9677 87.903 90.7618 79.9919 92.9215L81.3504 98.1478L79.4147 98.6509L78.0436 93.3762C70.7181 94.6088 64.7217 91.4145 62.6345 84.7761L68.9139 81.904C70.0528 85.6893 73.0674 87.747 76.5594 87.666L73.9933 77.794L71.8583 77.729C65.1271 77.6705 61.6015 75.4356 60.2682 70.306C58.721 64.3538 61.7884 59.062 68.572 56.9371L67.4651 52.6786L69.4007 52.1755L70.5202 56.4823C76.815 55.2594 82.0924 58.0723 84.0248 63.7177L77.9408 66.7456C76.978 63.6379 74.6699 61.9131 71.9668 62.0474L74.3567 71.2419L77.8863 71.306C84.8111 71.3142 88.5429 73.5472 89.8888 78.7251ZM66.8795 67.916C67.433 70.0452 69.0434 71.0731 72.2826 71.2127L70.0185 62.5022C67.4808 63.4718 66.2883 65.6415 66.8795 67.916ZM78.5453 87.3564C82.1747 86.413 83.9209 83.7894 83.229 81.1278C82.663 78.9502 80.7981 77.9367 76.9529 77.8513L76.0674 77.8232L78.5453 87.3564Z" fill="#15BDFF"/>
<path d="M88.4684 131.086C120.273 122.82 139.353 90.3357 131.086 58.5316C122.82 26.7275 90.3356 7.64676 58.5315 15.9136C26.7274 24.1805 7.64668 56.6644 15.9135 88.4685C24.1804 120.273 56.6643 139.353 88.4684 131.086Z" stroke="white" stroke-miterlimit="10" stroke-linecap="round" stroke-dasharray="1 11"/>
</svg>
