<svg width="192" height="151" viewBox="0 0 192 151" fill="none" xmlns="http://www.w3.org/2000/svg">
<path d="M106.985 28.4221C106.985 21.5678 101.427 16 94.5628 16C87.6985 16 82.1407 21.5578 82.1407 28.4221V68.7538C82.1407 68.7538 82.4724 78.8945 72 78.8945H113.327L106.985 28.4221Z" fill="#E8F9F1" stroke="black" stroke-miterlimit="10"/>
<path d="M191.015 150H107.055V29.8492C107.055 22.9849 101.528 16 94.6633 16H177.156C177.397 16 177.638 16.0201 177.879 16.0402C178.121 16.0302 178.352 16 178.603 16C185.467 16 191.025 21.5578 191.025 28.4221V150H191.015Z" fill="#E8F9F1" stroke="black" stroke-miterlimit="10"/>
<path d="M153.508 75.9095H125.015C123.6 75.9095 122.452 77.0569 122.452 78.4723V81.3869C122.452 82.8023 123.6 83.9497 125.015 83.9497H153.508C154.923 83.9497 156.07 82.8023 156.07 81.3869V78.4723C156.07 77.0569 154.923 75.9095 153.508 75.9095Z" fill="#AEEDCD"/>
<path d="M153.508 58.5326H125.015C123.6 58.5326 122.452 59.68 122.452 61.0954V64.01C122.452 65.4254 123.6 66.5728 125.015 66.5728H153.508C154.923 66.5728 156.07 65.4254 156.07 64.01V61.0954C156.07 59.68 154.923 58.5326 153.508 58.5326Z" fill="#AEEDCD"/>
<path d="M129.739 120.462V136.774C129.739 137.512 130.337 138.111 131.075 138.111H139.347C140.085 138.111 140.683 137.512 140.683 136.774V120.462C140.683 119.724 140.085 119.126 139.347 119.126H131.075C130.337 119.126 129.739 119.724 129.739 120.462Z" fill="#5DDDA3"/>
<path d="M157.065 120.462V136.774C157.065 137.512 157.664 138.111 158.402 138.111H166.673C167.412 138.111 168.01 137.512 168.01 136.774V120.462C168.01 119.724 167.412 119.126 166.673 119.126H158.402C157.664 119.126 157.065 119.724 157.065 120.462Z" fill="#5DDDA3"/>
<path d="M142.492 120.462V136.774C142.492 137.512 143.091 138.111 143.829 138.111H146.633C147.371 138.111 147.97 137.512 147.97 136.774V120.462C147.97 119.724 147.371 119.126 146.633 119.126H143.829C143.091 119.126 142.492 119.724 142.492 120.462Z" fill="#5DDDA3"/>
<path d="M149.779 120.462V136.774C149.779 137.512 150.377 138.111 151.116 138.111H153.92C154.658 138.111 155.256 137.512 155.256 136.774V120.462C155.256 119.724 154.658 119.126 153.92 119.126H151.116C150.377 119.126 149.779 119.724 149.779 120.462Z" fill="#5DDDA3"/>
<path d="M169.829 120.462V136.774C169.829 137.512 170.428 138.111 171.166 138.111H173.97C174.708 138.111 175.306 137.512 175.306 136.774V120.462C175.306 119.724 174.708 119.126 173.97 119.126H171.166C170.428 119.126 169.829 119.724 169.829 120.462Z" fill="#5DDDA3"/>
<path d="M122.452 120.462V136.774C122.452 137.512 123.051 138.111 123.789 138.111H126.593C127.331 138.111 127.93 137.512 127.93 136.774V120.462C127.93 119.724 127.331 119.126 126.593 119.126H123.789C123.051 119.126 122.452 119.724 122.452 120.462Z" fill="#5DDDA3"/>
<path d="M172.693 75.9095H168.191C166.776 75.9095 165.628 77.0569 165.628 78.4723V81.3869C165.628 82.8023 166.776 83.9497 168.191 83.9497H172.693C174.109 83.9497 175.256 82.8023 175.256 81.3869V78.4723C175.256 77.0569 174.109 75.9095 172.693 75.9095Z" fill="#AEEDCD"/>
<path d="M172.693 58.5326H168.191C166.776 58.5326 165.628 59.68 165.628 61.0954V64.01C165.628 65.4254 166.776 66.5728 168.191 66.5728H172.693C174.109 66.5728 175.256 65.4254 175.256 64.01V61.0954C175.256 59.68 174.109 58.5326 172.693 58.5326Z" fill="#AEEDCD"/>
<path d="M153.508 93.2865H125.015C123.6 93.2865 122.452 94.4339 122.452 95.8493V98.7638C122.452 100.179 123.6 101.327 125.015 101.327H153.508C154.923 101.327 156.07 100.179 156.07 98.7638V95.8493C156.07 94.4339 154.923 93.2865 153.508 93.2865Z" fill="#AEEDCD"/>
<path d="M172.693 93.2865H168.191C166.776 93.2865 165.628 94.4339 165.628 95.8493V98.7638C165.628 100.179 166.776 101.327 168.191 101.327H172.693C174.109 101.327 175.256 100.179 175.256 98.7638V95.8493C175.256 94.4339 174.109 93.2865 172.693 93.2865Z" fill="#AEEDCD"/>
<path d="M172.744 29.1658H125.015C123.6 29.1658 122.452 30.3132 122.452 31.7286V34.6432C122.452 36.0586 123.6 37.206 125.015 37.206H172.744C174.159 37.206 175.307 36.0586 175.307 34.6432V31.7286C175.307 30.3132 174.159 29.1658 172.744 29.1658Z" fill="#AEEDCD"/>
<path d="M122.452 47.186H129.487" stroke="black" stroke-miterlimit="10"/>
<path d="M142.412 47.186H161.799" stroke="black" stroke-miterlimit="10" stroke-dasharray="12.86 12.86"/>
<path d="M168.271 47.186H175.307" stroke="black" stroke-miterlimit="10"/>
<path d="M122.452 110.07H129.487" stroke="black" stroke-miterlimit="10"/>
<path d="M142.412 110.07H161.799" stroke="black" stroke-miterlimit="10" stroke-dasharray="12.86 12.86"/>
<path d="M168.271 110.07H175.307" stroke="black" stroke-miterlimit="10"/>
<path d="M106.627 48.2119V79.7119L54.627 122L0 54.8271L67.4189 0L106.627 48.2119Z" fill="#021030"/>
</svg>
