<svg width="227" height="168" viewBox="0 0 227 168" fill="none" xmlns="http://www.w3.org/2000/svg">
<path d="M202.451 60.4637L203.974 61.7879L203.975 61.7872L203.647 62.1651L204.409 62.8265L204.419 62.8356L204.43 62.8439C204.683 63.041 204.936 63.2435 205.187 63.4508L205.504 63.0666C206.006 63.4804 206.505 63.9133 206.998 64.365L206.662 64.7332C207.136 65.1671 207.606 65.6185 208.072 66.0862L208.425 65.7341C208.884 66.1954 209.338 66.6728 209.787 67.164L209.42 67.5008C209.856 67.9775 210.287 68.4682 210.713 68.9717L211.094 68.6488C211.516 69.1479 211.931 69.6599 212.342 70.1828L211.951 70.4911C212.351 71.0014 212.746 71.5233 213.135 72.055L213.536 71.7599C213.923 72.2888 214.305 72.8273 214.679 73.3753L214.268 73.6572C214.635 74.1944 214.996 74.7407 215.35 75.2949L215.772 75.0255C216.125 75.5779 216.471 76.1388 216.811 76.7063L216.383 76.9632C216.717 77.5226 217.046 78.0895 217.367 78.6622L217.801 78.4185C218.122 78.9919 218.436 79.5715 218.743 80.1566L218.303 80.3885C218.606 80.9672 218.901 81.5513 219.189 82.1399L219.637 81.9212C219.926 82.5128 220.208 83.1088 220.481 83.7088L220.028 83.9165C220.299 84.5124 220.562 85.1121 220.816 85.7148L221.277 85.5203C221.534 86.1284 221.781 86.7399 222.019 87.3535L221.554 87.5348C221.792 88.146 222.022 88.7594 222.241 89.3744L222.71 89.2062C222.932 89.8291 223.144 90.4538 223.346 91.0792L222.872 91.2329C223.074 91.8575 223.266 92.4829 223.448 93.1082L223.925 92.9698C224.11 93.6057 224.286 94.2411 224.448 94.8764L223.964 95.0003C224.127 95.6371 224.278 96.2736 224.418 96.9078L224.905 96.7998C225.048 97.4482 225.178 98.095 225.296 98.7393L224.806 98.8293C224.925 99.4769 225.031 100.122 225.123 100.763L225.615 100.693C225.71 101.351 225.792 102.005 225.858 102.655L225.362 102.706C225.429 103.361 225.48 104.011 225.517 104.654L226.014 104.626C226.052 105.291 226.074 105.95 226.079 106.602L225.582 106.605C225.587 107.263 225.574 107.913 225.544 108.555L226.042 108.578C226.011 109.245 225.961 109.903 225.891 110.55L225.396 110.498C225.378 110.66 225.361 110.821 225.341 110.981L225.278 111.46L225.275 111.482L225.274 111.505L225.224 112.506L225.721 112.532L225.622 114.534L225.124 114.51L225.025 116.513L225.523 116.537L225.423 118.541L224.925 118.517L224.826 120.52L225.324 120.544L225.224 122.548L224.726 122.523L224.627 124.526L225.125 124.551L225.025 126.554L224.527 126.53L224.428 128.533L224.926 128.557L224.827 130.561L224.328 130.536L224.229 132.539L224.727 132.564L224.628 134.568L224.13 134.542L224.03 136.546L224.529 136.571L224.429 138.574L223.931 138.549L223.831 140.552L224.33 140.577L224.231 142.58L223.732 142.556L223.632 144.559L224.131 144.584L224.031 146.587L223.533 146.562L223.434 148.566L223.931 148.59L223.833 150.594L223.334 150.568L223.235 152.572L223.733 152.597L223.634 154.6L223.136 154.576L223.035 156.579L223.534 156.603L223.434 158.607L222.937 158.582L222.836 160.585L223.336 160.61L223.237 162.614L222.737 162.588L222.638 164.592L223.136 164.617L223.037 166.62L222.538 166.595L222.439 168.599L222.937 168.623L222.838 170.626L222.34 170.602L222.24 172.605L222.739 172.63L222.639 174.633L222.141 174.608L222.041 176.612L222.54 176.636L222.44 178.639L221.942 178.615L221.842 180.619L222.341 180.643L222.242 182.646L221.743 182.622L221.643 184.625L222.143 184.65L222.043 186.653L221.544 186.628L221.494 187.609C221.45 187.922 221.405 188.238 221.358 188.555L221.849 188.628C221.753 189.273 221.651 189.925 221.54 190.582L221.048 190.498C220.94 191.138 220.825 191.784 220.702 192.433L221.191 192.525C221.07 193.167 220.94 193.813 220.805 194.461L220.319 194.36C220.186 194.998 220.046 195.638 219.898 196.28L220.382 196.392C220.235 197.031 220.082 197.672 219.921 198.313L219.439 198.191C219.28 198.825 219.113 199.459 218.94 200.093L219.421 200.225C219.247 200.858 219.065 201.492 218.876 202.124L218.399 201.981C218.212 202.608 218.017 203.233 217.815 203.856L218.289 204.009C218.086 204.635 217.876 205.26 217.657 205.882L217.187 205.716C216.969 206.333 216.743 206.947 216.51 207.557L216.976 207.736C216.741 208.352 216.497 208.964 216.245 209.571L215.785 209.379C215.534 209.984 215.274 210.584 215.006 211.178L215.461 211.384C215.189 211.986 214.909 212.582 214.619 213.171L214.171 212.951C213.883 213.539 213.585 214.121 213.278 214.693L213.718 214.93C213.405 215.513 213.083 216.087 212.752 216.653L212.322 216.4C211.991 216.965 211.65 217.521 211.3 218.065L211.718 218.335C211.36 218.892 210.992 219.439 210.614 219.973L210.208 219.683C209.829 220.217 209.44 220.739 209.04 221.247L209.43 221.555C209.021 222.076 208.601 222.584 208.169 223.076L207.795 222.746C207.365 223.237 206.923 223.712 206.471 224.171L206.824 224.52C206.36 224.991 205.883 225.445 205.394 225.881L205.063 225.509C204.578 225.942 204.08 226.356 203.571 226.752L203.877 227.146C203.355 227.55 202.82 227.933 202.272 228.297L201.998 227.883C201.46 228.241 200.909 228.577 200.345 228.892L200.588 229.327C200.014 229.647 199.426 229.944 198.825 230.219L198.62 229.766C198.327 229.9 198.031 230.028 197.731 230.15L197.203 230.366L197.433 230.77C197.391 230.847 197.302 230.969 197.138 231.136L197.494 231.486C197.149 231.836 196.616 232.26 195.921 232.751L195.635 232.344C195.156 232.682 194.597 233.053 193.962 233.454L194.227 233.875C193.699 234.21 193.121 234.563 192.498 234.935L192.243 234.507C191.694 234.835 191.108 235.176 190.491 235.53L190.738 235.963C190.171 236.288 189.577 236.625 188.959 236.97L188.715 236.534C188.147 236.851 187.559 237.176 186.952 237.508L187.189 237.944C186.612 238.259 186.017 238.581 185.408 238.908L185.173 238.47C184.588 238.785 183.989 239.104 183.377 239.428L183.609 239.868C183.017 240.182 182.414 240.502 181.8 240.824L181.801 240.823L181.569 240.38C180.982 240.687 180.385 240.998 179.78 241.312L180.008 241.754C179.413 242.063 178.811 242.374 178.2 242.688L177.973 242.245C177.374 242.552 176.769 242.862 176.157 243.174L176.384 243.618C175.787 243.922 175.184 244.227 174.577 244.535L174.353 244.09C173.752 244.395 173.145 244.7 172.536 245.007L172.76 245.453C172.157 245.756 171.551 246.06 170.942 246.364L170.719 245.918C170.116 246.22 169.51 246.523 168.902 246.825L169.124 247.272C168.517 247.574 167.91 247.876 167.301 248.178L167.079 247.73C166.473 248.03 165.865 248.331 165.258 248.63L165.478 249.077C164.869 249.377 164.261 249.677 163.653 249.976L163.434 249.528C162.825 249.827 162.217 250.126 161.611 250.422L161.83 250.871C161.217 251.171 160.606 251.467 159.998 251.763L159.781 251.316C159.17 251.614 158.561 251.909 157.957 252.203L158.173 252.65C157.559 252.949 156.948 253.246 156.342 253.54L156.127 253.092C155.51 253.39 154.898 253.686 154.293 253.978L154.509 254.427C153.895 254.724 153.287 255.016 152.686 255.306L152.471 254.857C151.85 255.156 151.236 255.451 150.631 255.742L150.847 256.191C150.225 256.49 149.612 256.785 149.01 257.073L148.794 256.623C148.175 256.92 147.566 257.212 146.97 257.497L147.184 257.946C146.559 258.245 145.947 258.538 145.351 258.823L145.136 258.372C144.503 258.674 143.887 258.968 143.29 259.252L143.504 259.702C142.868 260.005 142.253 260.296 141.663 260.576L141.451 260.127C140.809 260.432 140.195 260.723 139.613 260.999L139.826 261.449C139.171 261.76 138.557 262.052 137.987 262.322L137.774 261.872C137.098 262.192 136.484 262.483 135.941 262.74L136.154 263.193L136.154 263.194C135.396 263.553 134.775 263.849 134.308 264.071L134.308 264.07L134.093 263.619C133.666 263.822 133.365 263.968 133.209 264.047L132.316 264.481L132.53 264.931C131.924 265.218 131.314 265.49 130.699 265.747L130.508 265.288C129.897 265.544 129.282 265.786 128.664 266.014L128.834 266.48C128.206 266.711 127.575 266.929 126.939 267.131L126.789 266.655C126.159 266.856 125.525 267.042 124.888 267.214L125.016 267.696C124.371 267.87 123.722 268.029 123.071 268.174L122.963 267.689C122.317 267.833 121.669 267.962 121.019 268.078L121.106 268.57C120.448 268.687 119.788 268.792 119.126 268.88L119.06 268.385C118.405 268.473 117.748 268.546 117.09 268.606L117.135 269.103C116.469 269.163 115.802 269.209 115.135 269.242L115.112 268.744C114.451 268.776 113.791 268.795 113.13 268.799L113.132 269.299C112.464 269.303 111.796 269.292 111.128 269.269L111.147 268.771C110.486 268.748 109.826 268.712 109.167 268.662L109.127 269.158C108.461 269.108 107.796 269.044 107.133 268.966L107.192 268.471C106.535 268.394 105.88 268.303 105.227 268.199L105.147 268.692C104.488 268.587 103.831 268.468 103.176 268.336L103.275 267.848C102.627 267.718 101.981 267.574 101.339 267.417L101.22 267.902C100.571 267.744 99.9243 267.574 99.2818 267.389L99.4203 266.909C98.7849 266.727 98.1525 266.531 97.5246 266.323L97.3682 266.797C96.734 266.587 96.1042 266.363 95.4786 266.127L95.655 265.661C95.0365 265.428 94.422 265.183 93.813 264.924L93.6173 265.384C93.0025 265.123 92.3926 264.85 91.7884 264.564L92.0033 264.113C91.4059 263.831 90.8133 263.536 90.2273 263.229L89.9966 263.67C89.405 263.36 88.8191 263.038 88.24 262.703L88.4906 262.272C87.9187 261.941 87.3531 261.599 86.7945 261.244L86.5253 261.666C85.9619 261.308 85.4059 260.938 84.8568 260.556L85.1418 260.147C84.5997 259.77 84.0649 259.382 83.538 258.982L83.2358 259.378C82.7044 258.975 82.1803 258.561 81.6651 258.135L81.9844 257.75C81.7299 257.54 81.4768 257.326 81.2265 257.11C81.1371 257.031 80.8283 256.779 80.3902 256.423L80.0749 256.811L80.0728 256.813C79.6377 256.459 79.0637 255.989 78.4118 255.46L78.727 255.073C78.2099 254.653 77.6449 254.194 77.066 253.722L76.7508 254.107C76.2022 253.66 75.6406 253.2 75.0939 252.751L75.4105 252.367C74.8339 251.893 74.2745 251.429 73.7648 251.004L73.4448 251.384C72.8 250.846 72.2335 250.366 71.813 249.996L72.1433 249.623C71.9267 249.433 71.7531 249.276 71.6298 249.157C71.5678 249.098 71.5225 249.052 71.4921 249.019C71.4796 249.005 71.4721 248.996 71.4682 248.992L71.4403 248.94L71.3737 248.882L70.6118 248.219L70.2829 248.596L68.759 247.272L69.0887 246.895L67.5648 245.571L67.2359 245.948L65.7127 244.623L66.041 244.247L64.5172 242.923L64.1889 243.299L62.6651 241.975L62.994 241.598L61.4702 240.274L61.1412 240.651L59.6181 239.327L59.9463 238.949L58.4225 237.625L58.0942 238.002L56.5704 236.677L56.8987 236.301L55.3755 234.976L55.0466 235.353L53.5227 234.029L53.8517 233.652L52.3278 232.328L51.9996 232.705L50.4757 231.38L50.8047 231.004L49.2809 229.68L48.9519 230.056L47.4288 228.732L47.7577 228.355L46.2339 227.031L45.9049 227.408L44.3818 226.084L44.71 225.706L43.1862 224.382L42.8579 224.76L41.3341 223.434L41.6624 223.058L40.1392 221.733L39.8103 222.11L38.2864 220.786L38.6154 220.409L37.0915 219.085L36.7633 219.462L35.2394 218.138L35.5677 217.76L34.0439 216.436L33.7156 216.813L32.1918 215.488L32.5214 215.112L30.9976 213.788L30.6679 214.164L29.1448 212.841L29.4737 212.463L27.9499 211.139L27.6216 211.517L26.0978 210.191L26.4261 209.815L24.9029 208.49L24.574 208.867L23.0501 207.543L23.3791 207.166L22.6172 206.504L22.6069 206.495L22.5959 206.487L21.8384 205.88L21.5204 206.264C21.0182 205.851 20.5196 205.418 20.026 204.966L20.3639 204.598C19.8898 204.164 19.4197 203.712 18.9542 203.245L18.5992 203.597C18.1401 203.135 17.6863 202.658 17.2371 202.167L17.6058 201.83C17.17 201.353 16.7387 200.863 16.3131 200.359L15.9307 200.682C15.509 200.183 15.0932 199.671 14.6827 199.148L15.0754 198.84C14.6748 198.33 14.2801 197.808 13.8911 197.276L13.4882 197.571C13.1013 197.042 12.7197 196.504 12.3451 195.956L12.7583 195.674C12.3911 195.137 12.0298 194.59 11.6754 194.036L11.2541 194.305L11.2527 194.305C10.8994 193.753 10.5542 193.192 10.2145 192.624L10.6433 192.368C10.3084 191.808 9.97989 191.241 9.65898 190.669L9.22337 190.912C8.90207 190.339 8.58804 189.759 8.28152 189.174L8.72326 188.942C8.42008 188.364 8.12461 187.78 7.83676 187.191L7.38754 187.41C7.21148 187.05 7.03804 186.688 6.86793 186.325L6.54345 185.622L6.99812 185.414C6.72691 184.819 6.46372 184.219 6.20936 183.616L5.74859 183.811L5.74721 183.811C5.49076 183.203 5.24437 182.591 5.00569 181.978L5.47189 181.796C5.2341 181.185 5.00486 180.572 4.78566 179.957L4.31474 180.125C4.09269 179.502 3.88086 178.877 3.67851 178.252L4.15346 178.098C3.95138 177.473 3.75943 176.848 3.57801 176.223L3.09904 176.361C2.91458 175.725 2.73882 175.09 2.57633 174.454L2.57771 174.454L3.0614 174.331C2.89853 173.694 2.74743 173.057 2.60775 172.423L2.11935 172.531C1.97657 171.883 1.84675 171.236 1.7288 170.592L2.21981 170.502C2.10125 169.854 1.99533 169.209 1.9031 168.568L1.40948 168.638C1.31483 167.98 1.2325 167.326 1.1662 166.676L1.66381 166.625C1.59705 165.97 1.54544 165.32 1.5088 164.677L1.01068 164.705C0.972818 164.04 0.950742 163.381 0.945669 162.729L1.44497 162.725C1.43985 162.068 1.45216 161.417 1.48195 160.776L0.98217 160.753C1.01315 160.086 1.06452 159.428 1.13397 158.78L1.63006 158.833C1.64737 158.671 1.66522 158.51 1.68502 158.35L1.74823 157.871L1.75117 157.849L1.75204 157.826L1.80216 156.825L1.3024 156.8L1.40265 154.797L1.90173 154.821L2.00128 152.818L1.50151 152.794L1.60108 150.79L2.10084 150.814L2.19971 148.811L1.70063 148.787L1.80019 146.783L2.29996 146.808L2.39882 144.805L1.89906 144.78L1.99931 142.777L2.49907 142.802L2.59794 140.798L2.09818 140.774L2.19774 138.77L2.6975 138.794L2.79706 136.792L2.29729 136.767L2.39685 134.763L2.89592 134.789L2.99549 132.785L2.49641 132.761L2.59597 130.757L3.09504 130.782L3.1946 128.778L2.69484 128.754L2.79371 126.751L2.79509 126.751L3.29347 126.775L3.39372 124.772L2.89395 124.747L2.99352 122.743L3.49259 122.769L3.59215 120.765L3.09307 120.741L3.19125 118.737L3.19263 118.737L3.6917 118.762L3.79127 116.759L3.2915 116.734L3.39037 114.731L3.39175 114.731L3.89013 114.755L3.99038 112.752L3.49062 112.727L3.59018 110.724L4.08925 110.749L4.1895 108.746L3.68973 108.721L3.68835 108.721L3.78791 106.717L3.7893 106.717L4.28836 106.743L4.38793 104.739L3.88816 104.714L3.98703 102.711L3.98841 102.711L4.48748 102.736L4.58704 100.732L4.08728 100.708L4.18615 98.7044L4.18753 98.7044L4.68591 98.7291L4.78616 96.7259L4.28639 96.7012L4.28501 96.7012L4.38526 94.698L4.88503 94.7227L4.98459 92.7188L4.48551 92.6948L4.48413 92.6948L4.58438 90.6916L5.08414 90.7163L5.18371 88.7124L4.68394 88.6877L4.78211 86.6852L4.78349 86.6852L5.28257 86.7092L5.38282 84.706L4.88306 84.6813L4.88168 84.6813L4.98192 82.6781L5.48169 82.7028L5.53027 81.7219C5.57433 81.4084 5.62086 81.0931 5.66834 80.7763L5.17518 80.7026C5.2718 80.0577 5.37389 79.4061 5.48495 78.7494L5.97804 78.8327C6.08632 78.1925 6.20105 77.5471 6.32358 76.8978L5.83332 76.8062C5.9545 76.164 6.08414 75.5183 6.21962 74.8695L6.70704 74.9708C6.84016 74.3332 6.98032 73.6928 7.12773 73.0509L6.64247 72.9393C6.78923 72.3002 6.94264 71.6593 7.10392 71.0177L7.58702 71.1397C7.74622 70.5064 7.91252 69.872 8.08629 69.2384L7.60395 69.1061C7.77772 68.4726 7.95941 67.8394 8.14809 67.2073L8.62688 67.3499C8.8139 66.7234 9.0088 66.0979 9.21088 65.4749L8.73562 65.3219C8.93874 64.6957 9.14786 64.0711 9.36655 63.4501L9.36793 63.4501L9.83895 63.6154C10.0564 62.9979 10.2826 62.3838 10.5159 61.7736L10.0484 61.5951C10.284 60.979 10.5279 60.367 10.7799 59.76L11.241 59.9515C11.4921 59.3465 11.752 58.7469 12.0198 58.1533L11.5637 57.9473C11.8353 57.3451 12.1159 56.749 12.4052 56.16L12.8544 56.3797C13.1433 55.7914 13.4406 55.2103 13.7474 54.6376L13.3066 54.4014C13.619 53.8182 13.9412 53.2435 14.2727 52.6779L14.7036 52.9306C15.0347 52.3656 15.3755 51.8102 15.7258 51.2656L15.3067 50.9957C15.6649 50.4389 16.0321 49.8923 16.4109 49.3582L16.8181 49.648C17.1968 49.1141 17.5862 48.5918 17.9859 48.0836L17.594 47.7759C18.0035 47.2552 18.4233 46.7474 18.8554 46.255L19.2305 46.5847C19.6608 46.0944 20.1024 45.6191 20.5553 45.1603L20.2004 44.8108C20.6649 44.3402 21.1413 43.8862 21.6304 43.4501L21.963 43.8215C22.4481 43.3889 22.9454 42.9745 23.4549 42.5794L23.1479 42.1854C23.6693 41.781 24.2047 41.3978 24.7523 41.0339L25.028 41.4477C25.566 41.0902 26.1172 40.7536 26.681 40.4388L26.4365 40.0039C27.0103 39.6836 27.598 39.3867 28.1991 39.112L28.4061 39.5646C28.6989 39.4307 28.9956 39.3024 29.2951 39.1801L29.823 38.9647L29.5915 38.561C29.6336 38.4835 29.724 38.3618 29.8886 38.1946L29.5323 37.8451C29.8769 37.495 30.4086 37.0705 31.103 36.5801L31.3912 36.9871C31.8695 36.6494 32.4292 36.278 33.0636 35.8769L32.797 35.4556C33.3259 35.1212 33.9039 34.767 34.527 34.3956L34.7825 34.8237C35.3322 34.4961 35.9175 34.1547 36.5351 33.8005L36.2865 33.3683C36.8537 33.0429 37.4473 32.7062 38.0658 32.3612L38.0665 32.3605L38.3109 32.7968C38.8786 32.4801 39.4668 32.1552 40.0741 31.8234L39.8352 31.3871C40.4127 31.0717 41.0073 30.7503 41.6169 30.4229L41.853 30.8605C42.4378 30.5463 43.0369 30.2272 43.6485 29.9032L43.4152 29.4628C44.0073 29.1492 44.61 28.8287 45.2245 28.5071L45.2252 28.5078L45.4571 28.9509C46.0441 28.6436 46.641 28.3328 47.2462 28.0191L47.0163 27.5767C47.6112 27.2684 48.2139 26.9565 48.824 26.643L49.0532 27.0861C49.6518 26.7786 50.2573 26.4689 50.8685 26.1573L50.6414 25.7121C51.2381 25.408 51.8409 25.1036 52.4476 24.7964L52.6727 25.2408C53.2741 24.9364 53.8804 24.6304 54.4899 24.3238L54.2649 23.878C54.8675 23.5748 55.4735 23.2709 56.0822 22.9665L56.3065 23.413C56.9099 23.1111 57.516 22.808 58.1237 22.5056L57.9007 22.0591C58.5071 21.7573 59.1147 21.4547 59.7234 21.1531L59.9464 21.601C60.5529 21.3006 61.1604 21.0001 61.7676 20.7006L61.5461 20.2541C62.155 19.9538 62.7636 19.6536 63.3715 19.3551L63.5917 19.8029C64.2006 19.5038 64.8088 19.2053 65.415 18.9087L65.1955 18.4602L65.1948 18.4595C65.8071 18.1599 66.4187 17.8644 67.0264 17.5681L67.2445 18.0152C67.8556 17.7173 68.4644 17.4218 69.0691 17.128L68.851 16.6808C69.4658 16.382 70.0763 16.0845 70.6826 15.7908L70.9 16.2386C71.5161 15.9402 72.1276 15.6451 72.7329 15.3528L72.5162 14.9043C73.1297 14.6079 73.7376 14.3158 74.338 14.0266L74.5547 14.4738C75.1759 14.1745 75.7897 13.8799 76.3945 13.5894L76.1778 13.1395C76.7999 12.8406 77.4126 12.5464 78.0148 12.2578L78.2315 12.7077C78.8512 12.4107 79.4601 12.1191 80.056 11.8342L79.84 11.385C80.4658 11.0858 81.0771 10.7926 81.6735 10.5081L81.8895 10.9587C82.5227 10.6567 83.1391 10.3631 83.7355 10.0792L83.5202 9.62931C84.1566 9.32636 84.7713 9.03495 85.3613 8.75458L85.5745 9.20376C86.217 8.89849 86.8311 8.60779 87.4129 8.33177L87.1989 7.88189C87.8537 7.57124 88.4675 7.27862 89.0373 7.00852L89.2519 7.4591C89.9281 7.13858 90.5418 6.84826 91.0853 6.59052L90.8714 6.13788L90.8707 6.13718C91.6283 5.77796 92.2497 5.48244 92.716 5.25973L92.7174 5.26112L92.9327 5.71239C93.3594 5.50858 93.6608 5.36278 93.8173 5.2844C94.1133 5.13602 94.411 4.99152 94.7095 4.85027L94.4949 4.39969C95.1003 4.11311 95.7106 3.84129 96.3251 3.58357L96.5183 4.04295C97.1287 3.78696 97.7437 3.54484 98.3623 3.31741L98.1907 2.8506C98.8186 2.61974 99.4499 2.40201 100.085 2.20004L100.237 2.67566C100.867 2.4752 101.501 2.28893 102.138 2.11699L102.008 1.63533C102.654 1.46102 103.303 1.30196 103.954 1.15643L104.064 1.64277C104.709 1.49857 105.357 1.3688 106.007 1.25293L105.919 0.761247C106.577 0.643886 107.237 0.539262 107.898 0.450425L107.899 0.451121L107.965 0.94609C108.621 0.858096 109.278 0.784916 109.936 0.724969L109.89 0.228089C110.555 0.167418 111.222 0.121865 111.889 0.0893759L111.914 0.586776C112.574 0.554638 113.235 0.535967 113.896 0.531477L113.892 0.0321766C114.56 0.0276336 115.228 0.0387977 115.896 0.0619928L115.879 0.559747C116.54 0.582712 117.201 0.619299 117.86 0.669486L117.897 0.172582C118.563 0.223287 119.228 0.286641 119.892 0.364608L119.834 0.859966C120.491 0.937117 121.146 1.02798 121.799 1.13186L121.877 0.638733C122.537 0.743631 123.194 0.863292 123.849 0.994924L123.751 1.48306C124.399 1.61336 125.045 1.75772 125.688 1.91424L125.805 1.42903C126.454 1.5871 127.1 1.7574 127.743 1.94171L127.606 2.42193C128.241 2.60422 128.873 2.7995 129.501 3.00747L129.656 2.5343C130.29 2.74435 130.92 2.96829 131.546 3.20404L131.371 3.66945C131.989 3.90254 132.604 4.14827 133.213 4.40649L133.407 3.94675C134.022 4.20744 134.632 4.48073 135.236 4.76655L135.023 5.21785C135.62 5.50041 136.213 5.79501 136.799 6.10213L137.028 5.66132C137.619 5.97138 138.205 6.29301 138.785 6.62762L138.535 7.0593C139.107 7.38986 139.673 7.73278 140.232 8.08728L140.499 7.66542C141.063 8.02294 141.619 8.39323 142.168 8.77465L141.884 9.18396C142.426 9.56055 142.961 9.94876 143.488 10.3486L143.789 9.95257C144.32 10.3558 144.844 10.7699 145.359 11.1964L145.041 11.5805C145.294 11.7898 145.545 12.0022 145.794 12.217L145.795 12.2177C145.878 12.2915 146.19 12.546 146.636 12.9081L146.951 12.5198L146.952 12.5177C147.387 12.8714 147.961 13.3419 148.613 13.8713L148.299 14.2583C148.816 14.6782 149.381 15.137 149.96 15.6092L150.274 15.2236C150.822 15.671 151.384 16.1304 151.931 16.58L151.615 16.9642C152.192 17.4383 152.751 17.9014 153.261 18.3273L153.58 17.9466C154.224 18.4853 154.791 18.9645 155.211 19.3346L154.883 19.7076C155.099 19.8981 155.273 20.0554 155.396 20.1737C155.458 20.2331 155.503 20.2793 155.534 20.3122C155.544 20.3233 155.551 20.3315 155.555 20.3365L155.586 20.3913L155.652 20.4492L156.414 21.112L156.742 20.7348L158.265 22.059L157.937 22.4355L159.461 23.7597L159.789 23.3832L159.789 23.3826L161.312 24.7075L161.312 24.7068L160.985 25.084L162.509 26.4082L162.836 26.0317L164.359 27.3559L164.032 27.7331L165.556 29.0573L165.883 28.6801L167.406 30.0037L167.407 30.0044L167.08 30.3816L168.603 31.7058L168.93 31.3293L170.454 32.6535L170.455 32.6528L170.127 33.03L171.65 34.3549L171.978 33.9777L173.502 35.302L173.174 35.6792L174.698 37.0034L175.026 36.6262L175.025 36.6255L176.549 37.9511L176.549 37.9504L176.221 38.3269L177.745 39.6512L178.073 39.2753L179.596 40.5989L179.596 40.5982L179.268 40.9761L180.792 42.3003L181.12 41.9231L182.643 43.2466L182.643 43.2473L182.316 43.6245L183.84 44.9487L184.167 44.5716L184.167 44.5709L185.69 45.8965L185.691 45.8958L185.363 46.273L186.887 47.5979L187.214 47.2207L188.738 48.5449L188.41 48.9221L189.934 50.2463L190.262 49.8692L190.261 49.8685L191.785 51.1927L191.786 51.1934L191.458 51.5706L192.982 52.8948L193.309 52.5183L194.833 53.8425L194.833 53.8418L194.504 54.219L196.028 55.5432L196.357 55.1668L197.88 56.4903L197.552 56.8675L199.076 58.1917L199.404 57.8145L199.403 57.8138L200.927 59.1394L200.927 59.1387L200.6 59.5159L202.123 60.8408L202.451 60.4637Z" fill="#8376FF" stroke="#230759" stroke-dasharray="2 2"/>
</svg>
