<svg width="280" height="110" viewBox="0 0 280 110" fill="none" xmlns="http://www.w3.org/2000/svg">
<path fill-rule="evenodd" clip-rule="evenodd" d="M111.851 63.2695C108.477 63.2695 106.499 62.0857 106.499 57.1367V34.9012L115.681 34.1277V27.64H106.499V18H96.5599V27.64H91.0703V34.1305L96.5599 34.904V59.3797C96.5599 68.9892 101.745 72.222 109.049 72.222C111.756 72.1334 114.431 71.6102 116.973 70.6721V62.8703C115.28 63.1491 113.566 63.2826 111.851 63.2695Z" fill="#E6007D"/>
<path d="M167.652 27.085C156.136 27.085 146.305 35.5383 146.305 49.7059C146.305 63.7708 156.133 72.2214 167.652 72.2214C179.17 72.2214 188.996 64.012 188.996 49.7059C188.996 35.3997 179.187 27.085 167.652 27.085ZM167.652 63.7043C160.484 63.7043 155.802 57.4966 155.802 49.6892C155.802 41.8098 160.484 35.6021 167.652 35.6021C174.82 35.6021 179.511 41.7488 179.511 49.6892C179.511 57.6297 174.831 63.7043 167.652 63.7043Z" fill="#E6007D"/>
<path d="M29.8075 27.085C24.7083 27.2383 19.7219 28.6271 15.2746 31.1328L16.9173 38.2194C20.5655 36.4531 24.5487 35.4907 28.5989 35.3969C36.5969 35.3969 40.8281 39.2286 40.8281 46.6811C36.9292 45.256 32.8096 44.5333 28.6597 44.5462C19.3233 44.5462 12 49.4064 12 58.7997C12 67.522 19.0854 72.2186 26.5275 72.2186C33.7815 72.2186 38.3198 70.1365 40.8143 67.3002L42.1224 71.3841H50.419V45.4944C50.4412 33.8804 42.6147 27.085 29.8075 27.085ZM40.8281 54.6077C40.8281 60.7266 37.233 64.8133 29.3318 64.8133C24.6443 64.8133 20.9384 62.4289 20.9384 58.3034C20.9384 53.8674 24.6441 51.289 30.8942 51.289C34.3023 51.2704 37.6799 51.9349 40.8281 53.2436V54.6077Z" fill="#E6007D"/>
<path d="M84.0229 37.4744C80.6478 36.145 77.0694 35.4097 73.4448 35.3007C69.7473 35.3007 67.8638 37.3551 67.8638 39.3957C67.8638 41.3365 68.854 42.5453 72.192 43.9038L80.2979 47.1809C82.7044 47.9468 84.8089 49.4532 86.3131 51.4862C87.8173 53.5192 88.6445 55.9756 88.6772 58.5066C88.6772 67.7973 80.6574 72.2222 71.6445 72.2222C66.1583 72.0921 60.7997 70.5358 56.0938 67.7058L57.8057 60.4307C62.2606 62.4565 67.0332 63.6892 71.9098 64.0738C75.7982 64.0738 78.4422 62.3022 78.4422 59.391C78.4422 56.9124 76.628 55.5456 72.9969 54.1621L66.0165 51.506C63.4499 50.7682 61.1847 49.2293 59.55 47.1128C57.9153 44.9964 56.9963 42.4126 56.9262 39.7367C56.9262 31.0643 65.0514 27.083 72.9 27.083C77.3324 27.22 81.7084 28.1193 85.8371 29.7418L84.0229 37.4744Z" fill="#E6007D"/>
<path fill-rule="evenodd" clip-rule="evenodd" d="M132.86 34.9599V27.9094H123.344V71.3852H133.275V51.595C133.275 40.1667 139.044 36.2547 145.941 36.2547V27.086C143.242 27.0308 140.583 27.7406 138.269 29.1335C135.955 30.5265 134.08 32.5461 132.86 34.9599Z" fill="#E6007D"/>
<path d="M188.391 74.1791C187.758 75.2548 177.974 92.8547 140.042 92.8547C113.692 92.8547 81.1357 84.4207 49.7773 84.4207C35.0508 84.4207 23.123 85.1194 13.3828 87.8808C12.7246 88.0694 12 87.8808 12 87.354C12 86.8273 12.6473 86.4558 13.2309 86.1563C26.4808 80.0687 40.9204 77.0271 55.4937 77.2538C91.1857 77.2538 119.234 83.9272 145.589 83.9272C174.262 83.9272 186.444 73.4998 187.393 72.7291C188.61 71.7393 188.991 72.4158 188.991 72.7291C188.899 73.2503 188.694 73.745 188.391 74.1791Z" fill="#E6007D"/>
</svg>
