<?xml version="1.0" encoding="UTF-8"?>
<svg version="1.1" xmlns="http://www.w3.org/2000/svg" width="829" height="663">
<path d="M0 0 C273.57 0 547.14 0 829 0 C829 218.79 829 437.58 829 663 C555.43 663 281.86 663 0 663 C0 444.21 0 225.42 0 0 Z " fill="#30A9DC" transform="translate(0,0)"/>
<path d="M0 0 C0.88195038 -0.00040283 1.76390076 -0.00080566 2.6725769 -0.0012207 C29.06647217 0.06803502 55.06310879 5.48931299 78.4453125 18.2109375 C80.82542693 19.47764247 83.23202899 20.47869965 85.75 21.4375 C85.75 22.0975 85.75 22.7575 85.75 23.4375 C86.42289062 23.67984375 87.09578125 23.9221875 87.7890625 24.171875 C102.31066405 30.37899756 113.3987645 41.03633185 124.36328125 52.06640625 C125.9391977 53.63200573 127.54737038 55.16586718 129.1875 56.6640625 C137.92097462 64.83838174 144.29763729 74.41643921 150.75 84.4375 C151.46518799 85.54351562 151.46518799 85.54351562 152.19482422 86.671875 C154.57214196 90.40140489 156.35312215 93.80520606 157.796875 98.02734375 C159.59067452 102.56330401 161.96919489 106.84849107 164.2265625 111.16796875 C165.55500698 114.01901498 166.31899029 116.34471408 166.75 119.4375 C167.96171875 119.46328125 169.1734375 119.4890625 170.421875 119.515625 C187.57588504 120.02941493 203.18859022 123.05795913 219.5 128.375 C220.49999023 128.69863525 221.49998047 129.02227051 222.53027344 129.35571289 C227.82488423 131.15768656 232.41246261 133.17733327 237.00488281 136.38891602 C238.9021573 137.52892636 240.58957399 138.00535548 242.75 138.4375 C242.75 139.0975 242.75 139.7575 242.75 140.4375 C243.45125 140.685 244.1525 140.9325 244.875 141.1875 C262.35501223 148.78750532 276.53853231 165.85942155 286.75 181.4375 C287.59304688 182.71367187 287.59304688 182.71367187 288.453125 184.015625 C296.42833755 196.69201547 303.16613987 211.34616824 305.2578125 226.22265625 C305.53005492 228.00087459 305.82975665 229.77781624 306.24023438 231.52929688 C307.95641503 238.97422291 308.0473129 246.19512336 308 253.8125 C308.00773438 255.05 308.01546875 256.2875 308.0234375 257.5625 C307.99992751 268.72974357 306.3085317 279.17284689 303.4375 289.9375 C303.11483154 291.15505981 303.11483154 291.15505981 302.78564453 292.3972168 C294.02187491 324.43875502 271.24140329 353.53939275 242.75 370.4375 C242.09 370.4375 241.43 370.4375 240.75 370.4375 C240.75 371.0975 240.75 371.7575 240.75 372.4375 C239.19143861 373.08992105 237.63285623 373.74229199 236.07421875 374.39453125 C234.44531457 375.12548489 232.84453308 375.920891 231.26953125 376.76171875 C210.48669635 387.44762981 187.02926233 388.74288346 164.14355469 388.95239258 C161.46011243 388.97925721 158.77841825 389.02817769 156.09570312 389.09594727 C152.21691405 389.18693062 148.3406304 389.22594396 144.4609375 389.25390625 C143.26189789 389.29205948 142.06285828 389.33021271 140.82748413 389.36952209 C132.75201933 389.35057619 132.75201933 389.35057619 129.88897705 386.7416687 C127.74857404 383.45482882 126.60483776 380.25098197 125.75 376.4375 C125.09 376.4375 124.43 376.4375 123.75 376.4375 C123.48719238 375.72940186 123.22438477 375.02130371 122.95361328 374.29174805 C121.6814253 371.27488199 120.16808329 368.58152031 118.4921875 365.76953125 C117.86699219 364.71185547 117.24179687 363.65417969 116.59765625 362.56445312 C115.27535824 360.34273063 113.95243478 358.12138028 112.62890625 355.90039062 C112.00628906 354.84658203 111.38367188 353.79277344 110.7421875 352.70703125 C110.16839355 351.74385986 109.59459961 350.78068848 109.00341797 349.78833008 C107.75 347.4375 107.75 347.4375 107.75 345.4375 C109.23219025 345.42870064 109.23219025 345.42870064 110.74432373 345.41972351 C120.10020899 345.36227192 129.45586681 345.28939505 138.81151962 345.20178509 C143.62026004 345.15723994 148.42891882 345.11794974 153.23779297 345.09106445 C157.88694371 345.0648722 162.53577757 345.02435975 167.18473053 344.97431374 C168.94990315 344.95775192 170.71513044 344.94617163 172.48036957 344.93988609 C197.77281903 344.84079689 221.55070562 336.58631868 239.75 318.4375 C253.08972315 304.14095528 264.3560308 284.37234138 264.75 264.4375 C264.77433105 263.74027832 264.79866211 263.04305664 264.82373047 262.32470703 C265.69008199 236.05972699 259.39443952 213.81406791 242.0625 193.75 C235.61579101 186.92883539 227.44650053 179.22883151 218.75 175.4375 C218.75 174.7775 218.75 174.1175 218.75 173.4375 C212.22023929 171.18585838 205.64142163 169.24412665 198.984375 167.40234375 C195.75 166.4375 195.75 166.4375 193.203125 165.37890625 C186.8055288 162.92377777 179.98097116 163.22731447 173.2265625 163.12109375 C171.57459366 163.0899221 171.57459366 163.0899221 169.88925171 163.05812073 C166.38456227 162.9929381 162.87980034 162.93388603 159.375 162.875 C156.9934822 162.83178502 154.61197163 162.78816978 152.23046875 162.74414062 C146.4037216 162.63728888 140.57690297 162.53546533 134.75 162.4375 C134.27798062 160.56136515 133.80679124 158.68502148 133.3359375 156.80859375 C133.07345215 155.76372803 132.8109668 154.7188623 132.54052734 153.64233398 C131.79029105 150.60084174 131.07755726 147.5527979 130.375 144.5 C128.99303275 138.91332389 127.01226404 133.66976389 124.8359375 128.34765625 C123.84735548 125.69839868 123.21131665 123.22077713 122.75 120.4375 C122.09 120.4375 121.43 120.4375 120.75 120.4375 C120.32460938 119.40496094 119.89921875 118.37242187 119.4609375 117.30859375 C106.14417963 86.34752018 77.20951906 63.84649007 46.75 51.4375 C25.07693652 43.17575437 0.47908301 39.03211677 -22.3046875 44.71484375 C-24.76311407 45.3180386 -27.05047916 45.70600004 -29.5625 45.9375 C-36.4762934 46.87496351 -42.66318025 49.51496218 -48.9609375 52.42578125 C-51.25 53.4375 -51.25 53.4375 -53.4765625 54.23046875 C-67.44027647 59.2041662 -79.44156433 68.50660985 -90.25 78.4375 C-91.55710937 79.62085938 -91.55710937 79.62085938 -92.890625 80.828125 C-103.86824857 91.2534153 -113.43883298 104.43787036 -119.25 118.4375 C-119.71535156 119.17742187 -120.18070313 119.91734375 -120.66015625 120.6796875 C-122.54665567 123.9520919 -123.82781364 127.32113683 -125.0625 130.875 C-125.30117798 131.55977417 -125.53985596 132.24454834 -125.7857666 132.95007324 C-127.92830219 139.24814255 -129.72917424 145.61029196 -131.44921875 152.03515625 C-131.72100952 153.04130981 -131.99280029 154.04746338 -132.27282715 155.08410645 C-132.93438823 157.53457525 -133.59339939 159.98569831 -134.25 162.4375 C-134.83056656 162.44336624 -135.41113312 162.44923248 -136.0092926 162.45527649 C-142.12685612 162.51989115 -148.24392611 162.60447276 -154.36108398 162.69995117 C-156.63510576 162.73292666 -158.909204 162.76104091 -161.18334961 162.78393555 C-184.68933698 162.98458306 -184.68933698 162.98458306 -206.796875 170.296875 C-210.2157551 171.88654537 -213.56708857 172.67312216 -217.25 173.4375 C-217.25 174.0975 -217.25 174.7575 -217.25 175.4375 C-217.97574219 175.69144531 -218.70148438 175.94539062 -219.44921875 176.20703125 C-224.36051294 178.3647128 -228.16038502 182.02109856 -232.25 185.4375 C-232.92289062 185.96214844 -233.59578125 186.48679687 -234.2890625 187.02734375 C-242.25863687 193.47187611 -253.32727984 205.05481114 -255.25 215.4375 C-255.91 215.4375 -256.57 215.4375 -257.25 215.4375 C-258.34700051 218.74512275 -259.31086662 222.08176817 -260.25 225.4375 C-260.42644043 226.05979492 -260.60288086 226.68208984 -260.78466797 227.32324219 C-267.79206152 252.72735496 -264.44306202 276.22383929 -252.75 299.75 C-245.93196755 311.7209927 -236.53667661 322.54021576 -225.25 330.4375 C-224.45335937 330.99695313 -223.65671875 331.55640625 -222.8359375 332.1328125 C-216.11538145 336.48913385 -208.82606043 338.96002052 -201.25 341.4375 C-199.92742187 341.97117187 -199.92742187 341.97117187 -198.578125 342.515625 C-188.08006544 345.42353821 -176.50446836 344.63983392 -165.671875 344.75390625 C-164.0075027 344.77452748 -162.34313503 344.7955251 -160.67877197 344.81687927 C-156.33884473 344.87156714 -151.99887451 344.92120694 -147.65887451 344.96972656 C-142.42980851 345.02926371 -137.20081951 345.09519271 -131.97181702 345.16002655 C-124.06459247 345.25736361 -116.15731413 345.34667797 -108.25 345.4375 C-108.25 359.2975 -108.25 373.1575 -108.25 387.4375 C-128.94168908 387.51771762 -128.94168908 387.51771762 -137.83007812 387.53515625 C-143.87121132 387.54706529 -149.91228331 387.56108262 -155.95336914 387.58837891 C-160.82929463 387.61027009 -165.70515438 387.62210261 -170.58112526 387.62725449 C-172.43204596 387.63092125 -174.28296347 387.63808061 -176.13385582 387.64896011 C-208.32612114 387.83048689 -239.08076371 378.01739445 -262.515625 355.1484375 C-263.41796875 354.25382812 -264.3203125 353.35921875 -265.25 352.4375 C-266.11109375 351.62539063 -266.9721875 350.81328125 -267.859375 349.9765625 C-278.46957789 339.79472184 -286.44265507 328.3876985 -293.25 315.4375 C-293.77207031 314.48230469 -294.29414063 313.52710938 -294.83203125 312.54296875 C-309.90534906 282.8338173 -311.68445935 245.43611667 -301.83203125 213.83129883 C-294.96135447 193.06403312 -283.6152375 174.97053261 -268.25 159.4375 C-267.59902344 158.7259375 -266.94804687 158.014375 -266.27734375 157.28125 C-253.14167567 143.22524849 -234.45462162 133.04342962 -216.25 127.4375 C-215.56228516 127.22109863 -214.87457031 127.00469727 -214.16601562 126.78173828 C-198.06582322 121.73331179 -183.10860339 119.98629138 -166.25 119.4375 C-166.00507813 118.64730469 -165.76015625 117.85710937 -165.5078125 117.04296875 C-157.88693606 94.048945 -144.06310444 71.00137374 -126.25 54.4375 C-125.074375 53.261875 -125.074375 53.261875 -123.875 52.0625 C-123.00875 51.19625 -122.1425 50.33 -121.25 49.4375 C-120.63898438 48.79167969 -120.02796875 48.14585937 -119.3984375 47.48046875 C-98.70650143 25.99847694 -70.8472138 12.04131668 -42.1875 4.75 C-41.39722412 4.54753662 -40.60694824 4.34507324 -39.79272461 4.13647461 C-26.52291511 0.88509344 -13.60316188 -0.00637935 0 0 Z " fill="#F9FBFC" transform="translate(407.25,125.5625)"/>
<path d="M0 0 C24.81398338 -0.12032643 24.81398338 -0.12032643 35.4765625 -0.14648438 C42.72239866 -0.16434512 49.96811995 -0.18536317 57.21386719 -0.22631836 C63.06239065 -0.25916519 68.91079075 -0.27690593 74.75939941 -0.28463173 C76.97906432 -0.29013012 79.19872328 -0.30086564 81.41833496 -0.31719017 C94.01543556 -0.40606486 105.71566868 0.06775731 118 3 C120.24999355 3.50002901 122.49999248 4.00003382 124.75 4.5 C128.58127033 5.39895728 130.93537154 6.5496182 134 9 C136.14733927 9.70514846 136.14733927 9.70514846 138 10 C138 10.66 138 11.32 138 12 C139.27230469 12.32677734 139.27230469 12.32677734 140.5703125 12.66015625 C144.73970607 14.28897401 147.53541608 16.51398635 150.875 19.4375 C151.48923828 19.97101074 152.10347656 20.50452148 152.73632812 21.05419922 C158.05399659 25.8061284 162.18322072 30.97162898 166 37 C166.55171875 37.80953125 167.1034375 38.6190625 167.671875 39.453125 C178.44157132 55.98087678 180.89879142 79.26279284 176.97241211 98.38549805 C172.70739515 115.78279977 163.69714199 132.3285969 149 143 C146 144.4375 146 144.4375 144 145 C144 145.66 144 146.32 144 147 C140.70450534 148.72264494 137.66881155 150.29445932 134 151 C134.35012498 155.08479148 135.55986375 156.67514291 138.50390625 159.40234375 C141.07921441 162.15247701 142.88215215 165.39619901 144.859375 168.58984375 C147.41727393 172.70499352 150.1174929 176.72385751 152.8125 180.75 C153.59306763 181.91764893 153.59306763 181.91764893 154.3894043 183.10888672 C155.43354986 184.67033173 156.47806051 186.23153266 157.52294922 187.79248047 C160.03841981 191.5519656 162.5472984 195.31585271 165.05200195 199.08251953 C167.57481626 202.8735485 170.11457954 206.65262504 172.6640625 210.42578125 C173.29844238 211.36832764 173.93282227 212.31087402 174.58642578 213.28198242 C175.83886501 215.14274471 177.09491345 217.00108405 178.35498047 218.85668945 C178.92877441 219.71093506 179.50256836 220.56518066 180.09375 221.4453125 C180.60615234 222.20344238 181.11855469 222.96157227 181.64648438 223.74267578 C183 226 183 226 185 231 C166.19 231 147.38 231 128 231 C126.35 227.7 124.7 224.4 123 221 C121.85359284 218.9644022 120.68281296 216.94212302 119.4765625 214.94140625 C118.8475 213.89533203 118.2184375 212.84925781 117.5703125 211.77148438 C116.60738281 210.18303711 116.60738281 210.18303711 115.625 208.5625 C114.99078125 207.50740234 114.3565625 206.45230469 113.703125 205.36523438 C110.67810398 200.34925564 107.61261257 195.36605651 104.453125 190.43359375 C100.88680034 184.86064527 97.48756649 179.19768211 94.125 173.5 C93.54492188 172.52546875 92.96484375 171.5509375 92.3671875 170.546875 C91.81546875 169.61359375 91.26375 168.6803125 90.6953125 167.71875 C90.20047363 166.88279297 89.70563477 166.04683594 89.19580078 165.18554688 C88 163 88 163 87 160 C66.705 159.505 66.705 159.505 46 159 C46 182.43 46 205.86 46 230 C30.82 230 15.64 230 0 230 C0 176.87 0 123.74 0 69 C15.18 69 30.36 69 46 69 C46 84.51 46 100.02 46 116 C53.27029182 115.93222807 60.53963188 115.86161624 67.80944061 115.7644577 C71.19560948 115.71999259 74.58166021 115.68051869 77.96801758 115.65356445 C81.86308611 115.61986885 85.75753703 115.56754295 89.65234375 115.51171875 C90.8526976 115.50532883 92.05305145 115.4989389 93.28977966 115.49235535 C104.14330169 115.30398554 113.33897423 112.79353804 122 106 C125.88045679 101.53547446 128.52464722 96.75387582 130 91 C130.66 91 131.32 91 132 91 C131.92872871 71.31885953 131.92872871 71.31885953 122 55 C120.7451958 54.06151102 119.47386053 53.14474674 118.1875 52.25 C117.135625 51.5075 116.08375 50.765 115 50 C115 49.34 115 48.68 115 48 C113.9171875 47.814375 113.9171875 47.814375 112.8125 47.625 C110 47 110 47 107.96211243 45.98086548 C103.58932112 44.53287181 99.37215256 44.69141359 94.79370117 44.68115234 C93.76884613 44.67110672 92.74399109 44.6610611 91.68807983 44.65071106 C88.30638175 44.6198627 84.92476291 44.60283911 81.54296875 44.5859375 C79.19598203 44.56722721 76.84900204 44.5476539 74.50202942 44.5272522 C68.32894867 44.47591047 62.1558461 44.43629552 55.98266602 44.39910889 C49.6817484 44.35908215 43.38092169 44.30798371 37.08007812 44.2578125 C24.72010957 44.16102892 12.36010355 44.0776551 0 44 C0 29.48 0 14.96 0 0 Z " fill="#F9FBFC" transform="translate(327,283)"/>
<path d="M0 0 C41.085 0.495 41.085 0.495 83 1 C83 14.86 83 28.72 83 43 C82.67 43 82.34 43 82 43 C82 29.8 82 16.6 82 3 C76.66714844 3.02320313 71.33429688 3.04640625 65.83984375 3.0703125 C62.45377115 3.0805361 59.06771768 3.09016437 55.68164062 3.09765625 C50.31156442 3.10959429 44.94155667 3.12369077 39.5715332 3.15087891 C35.24027826 3.17266964 30.90909676 3.18458176 26.57779121 3.18975449 C24.92845059 3.19343907 23.27911382 3.2006341 21.62980461 3.21146011 C19.31293035 3.22605798 16.99635649 3.2279745 14.67944336 3.22705078 C13.3626207 3.231492 12.04579803 3.23593323 10.68907166 3.24050903 C6.7738738 2.9852577 3.71062007 2.21123236 0 1 C0 0.67 0 0.34 0 0 Z " fill="#BCE4F2" transform="translate(216,470)"/>
<path d="M0 0 C25.74 0 51.48 0 78 0 C75.13247614 2.86752386 73.12048741 2.27079104 69.10351562 2.30297852 C68.03988045 2.31563751 68.03988045 2.31563751 66.95475769 2.32855225 C64.60524854 2.35439264 62.2558651 2.36648465 59.90625 2.37890625 C58.27721147 2.39507421 56.64818268 2.41225346 55.01916504 2.43040466 C50.72589619 2.47615613 46.43261447 2.51092727 42.13922119 2.54260254 C35.26642859 2.59441749 28.39377934 2.6595376 21.52116394 2.73081779 C19.1158881 2.75369568 16.71063053 2.76993866 14.30529785 2.78553772 C12.83569132 2.79894243 11.36608669 2.81255706 9.89648438 2.82641602 C8.61012085 2.83592789 7.32375732 2.84543976 5.99841309 2.85523987 C3.07525322 2.79422273 3.07525322 2.79422273 1 4 C0.67 2.68 0.34 1.36 0 0 Z " fill="#B9E1EE" transform="translate(515,471)"/>
<path d="M0 0 C0.66 0.33 1.32 0.66 2 1 C-3.3250511 7.12627407 -8.72690435 12.83794309 -15 18 C-15 15 -15 15 -13.62304688 13.2824707 C-12.99462891 12.66976318 -12.36621094 12.05705566 -11.71875 11.42578125 C-11.04199219 10.75869141 -10.36523438 10.09160156 -9.66796875 9.40429688 C-8.95253906 8.71400391 -8.23710937 8.02371094 -7.5 7.3125 C-6.42685547 6.2596582 -6.42685547 6.2596582 -5.33203125 5.18554688 C-3.56120423 3.45013639 -1.78376544 1.7220927 0 0 Z " fill="#D7EFF3" transform="translate(147,277)"/>
<path d="M0 0 C0 0.99 0 1.98 0 3 C-5.28 3 -10.56 3 -16 3 C-15.67 2.34 -15.34 1.68 -15 1 C-10.03901518 -0.24024621 -5.07558808 -0.10151176 0 0 Z " fill="#24A4D7" transform="translate(414,122)"/>
<path d="M0 0 C0.33 0.99 0.66 1.98 1 3 C-4.94 7.95 -4.94 7.95 -11 13 C-11.66 12.67 -12.32 12.34 -13 12 C-12.14535156 11.21753906 -11.29070313 10.43507813 -10.41015625 9.62890625 C-9.29425993 8.60678273 -8.17837511 7.58464667 -7.0625 6.5625 C-6.21655273 5.7880957 -6.21655273 5.7880957 -5.35351562 4.99804688 C-2.64001674 2.53775333 -2.64001674 2.53775333 0 0 Z " fill="#57BFE6" transform="translate(675,475)"/>
<path d="M0 0 C0.99 0.33 1.98 0.66 3 1 C0.36 3.64 -2.28 6.28 -5 9 C-5.33 7.68 -5.66 6.36 -6 5 C-1.60546875 0.99609375 -1.60546875 0.99609375 0 0 Z " fill="#3CB3DF" transform="translate(330,192)"/>
<path d="M0 0 C0 3 0 3 -1.609375 4.859375 C-2.31578125 5.48328125 -3.0221875 6.1071875 -3.75 6.75 C-4.44609375 7.38421875 -5.1421875 8.0184375 -5.859375 8.671875 C-8 10 -8 10 -10.265625 9.703125 C-11.12414062 9.35507812 -11.12414062 9.35507812 -12 9 C-11.30132812 8.51789063 -10.60265625 8.03578125 -9.8828125 7.5390625 C-8.97273438 6.90742188 -8.06265625 6.27578125 -7.125 5.625 C-6.22007812 4.99851562 -5.31515625 4.37203125 -4.3828125 3.7265625 C-1.96505875 2.0701905 -1.96505875 2.0701905 0 0 Z " fill="#54BDE5" transform="translate(483,419)"/>
<path d="M0 0 C0.66 0 1.32 0 2 0 C1.67 2.64 1.34 5.28 1 8 C0.01 8.33 -0.98 8.66 -2 9 C-1.34 6.03 -0.68 3.06 0 0 Z " fill="#3FB2DD" transform="translate(711,411)"/>
</svg>
